<svg xmlns="http://www.w3.org/2000/svg" width="62" height="62" viewBox="0 0 62 62">
    <g fill="none" fill-rule="evenodd" transform="translate(1 1)">
        <circle cx="30" cy="30" r="30" fill="#50B2E2" stroke="#4AA5D2"/>
        <g fill="#FFF">
            <path d="M30 40c.502 0 .973-.21 1.325-.59l8.31-9.111a1.423 1.423 0 0 0 0-1.905 1.188 1.188 0 0 0-1.768 0L30 37.03l-7.866-8.636a1.188 1.188 0 0 0-1.767 0 1.42 1.42 0 0 0 0 1.905l8.307 9.11A1.8 1.8 0 0 0 30 40z"/>
            <path d="M30 29c.401 0 .778-.175 1.06-.492l6.648-7.592c.39-.44.39-1.149 0-1.588a.925.925 0 0 0-1.414 0L30 26.525l-6.293-7.197a.925.925 0 0 0-1.414 0 1.22 1.22 0 0 0 0 1.588l6.646 7.592c.284.317.66.492 1.061.492z" opacity=".5"/>
        </g>
    </g>
</svg>
