<svg xmlns="http://www.w3.org/2000/svg" width="20" height="22" viewBox="0 0 20 22">
    <g fill="#FFF" fill-rule="evenodd">
        <path fill-rule="nonzero" d="M19.543 10.383a4.473 4.473 0 0 0-2.857-3.23c.08-.14.152-.284.214-.432a3.38 3.38 0 0 0-.027-2.713 3.413 3.413 0 0 0-2.016-1.83 3.74 3.74 0 0 0-3.514.76A5.64 5.64 0 0 0 5.514.76a5.125 5.125 0 0 0-3.16 2.348 5.067 5.067 0 0 0-.547 3.883A3.616 3.616 0 0 0 0 9.935c0 2.13 2.307 3.91 5.157 3.91a6.465 6.465 0 0 0 2.472-.482c1.078 1.803 3.692 2.839 6.514 2.463 3.414-.454 5.857-2.903 5.4-5.443zm-13.529 5.23a2.136 2.136 0 0 0-2.143 2.129c0 1.176.96 2.129 2.143 2.129a2.136 2.136 0 0 0 2.143-2.13c0-1.175-.96-2.128-2.143-2.128zM1.73 19.16c-.79 0-1.429.636-1.429 1.42C.3 21.365.94 22 1.729 22s1.428-.635 1.428-1.42c0-.783-.64-1.419-1.428-1.419z"/>
        <path d="M6.014 15.613a2.136 2.136 0 0 0-2.143 2.129c0 1.176.96 2.129 2.143 2.129a2.136 2.136 0 0 0 2.143-2.13c0-1.175-.96-2.128-2.143-2.128zM1.729 19.161c-.79 0-1.429.636-1.429 1.42C.3 21.365.94 22 1.729 22s1.428-.635 1.428-1.42c0-.783-.64-1.419-1.428-1.419z"/>
    </g>
</svg>
