<svg xmlns="http://www.w3.org/2000/svg" width="20" height="20" viewBox="0 0 20 20">
    <path fill="#FFF" fill-rule="nonzero" d="M19.626 4.428A23.646 23.646 0 0 0 15.346.08a1.05 1.05 0 0 0-1.227.325 1.088 1.088 0 0 0-.32 1.247c.28.366.567.725.867 1.07l-1.6 1.626c-.74-.677-1.5-1.355-2.3-1.978a1.199 1.199 0 0 0-1.514.108 1.255 1.255 0 0 0-.106 1.538l.213.264-1.88 1.91 2.18 2.216c.254.204.37.537.298.858a.847.847 0 0 1-.633.643.833.833 0 0 1-.845-.302L6.3 7.389l-1.673 1.7 2.18 2.215c.253.204.37.538.297.858a.847.847 0 0 1-.633.644.833.833 0 0 1-.844-.303l-2.147-2.215-.587.596a3.426 3.426 0 0 0 0 4.79l-2.6 2.641c-.39.397-.39 1.04 0 1.436a.989.989 0 0 0 1.414 0l2.593-2.635a3.296 3.296 0 0 0 4.713 0l6.48-6.591.26.217c.47.344 1.114.304 1.54-.095.386-.424.43-1.063.107-1.538a36.244 36.244 0 0 0-1.947-2.337l1.6-1.626c.347.305.667.596 1.054.881.423.16.9.029 1.186-.325.384-.298.521-.822.334-1.274z"/>
</svg>
