<?xml version="1.0" encoding="UTF-8" standalone="no"?>
<svg width="434px" height="138px" viewBox="0 0 434 138" version="1.1" xmlns="http://www.w3.org/2000/svg" xmlns:xlink="http://www.w3.org/1999/xlink" xmlns:sketch="http://www.bohemiancoding.com/sketch/ns">
    <!-- Generator: Sketch 3.2.2 (9983) - http://www.bohemiancoding.com/sketch -->
    <title>clh_half_logo</title>
    <desc>Created with Sketch.</desc>
    <defs></defs>
    <g id="Page-1" stroke="none" stroke-width="1" fill="none" fill-rule="evenodd" sketch:type="MSPage">
        <g id="clh_half_logo" sketch:type="MSLayerGroup" transform="translate(-2.000000, -4.000000)">
            <path d="M2.2839434,48.8732857 C2.2839434,24.8447143 20.4771604,8.08685714 42.9909057,8.08685714 C56.9872736,8.08685714 67.7185094,13.3607143 74.4837642,23.5562857 L68.068934,28.246 C62.9362453,20.6272857 54.4229906,15.7055714 42.9909057,15.7055714 C24.4431415,15.7055714 11.0321887,29.8865714 11.0321887,48.8732857 C11.0321887,67.8641429 24.4431415,82.0451429 42.9909057,82.0451429 C54.5384245,82.0451429 63.4021038,77.0074286 69.1160849,68.6844286 L75.6504717,73.254 C68.6502264,83.5697143 57.2222642,89.6638571 42.9909057,89.6638571 C20.4771604,89.6638571 2.2839434,72.9018571 2.2839434,48.8732857" id="Fill-1" fill="#000000" sketch:type="MSShapeGroup"></path>
            <path d="M83.0712264,40.2022857 L91.2340566,40.2022857 L91.2340566,88.7275714 L83.0712264,88.7275714 L83.0712264,40.2022857 Z" id="Fill-2" fill="#000000" sketch:type="MSShapeGroup"></path>
            <path d="M106.223981,40.2022857 L114.386811,40.2022857 L114.151821,49.6935714 C117.186085,42.311 122.549642,39.2618571 128.267745,39.2618571 C131.883302,39.2618571 134.447585,40.0862857 136.665566,41.6067143 L133.515868,48.7572857 C131.998736,47.7008571 129.900311,46.8805714 126.866047,46.8805714 C119.985358,46.8805714 114.386811,51.8064286 114.386811,63.1744286 L114.386811,88.7275714 L106.223981,88.7275714 L106.223981,40.2022857" id="Fill-3" fill="#000000" sketch:type="MSShapeGroup"></path>
            <path d="M137.778679,64.4628571 C137.778679,50.2818571 148.625349,39.1458571 162.856708,39.1458571 C171.489519,39.1458571 177.438491,42.427 181.87033,47.821 L176.036792,52.6267143 C173.122085,48.7572857 168.921113,46.4124286 162.856708,46.4124286 C152.59133,46.4124286 146.1765,54.1512857 146.1765,64.4628571 C146.1765,74.7785714 152.59133,82.5132857 162.856708,82.5132857 C169.506528,82.5132857 173.703377,79.8162857 176.737642,76.183 L182.336189,80.9928571 C177.788915,86.4987143 171.839943,89.6638571 162.856708,89.6638571 C148.625349,89.6638571 137.778679,78.648 137.778679,64.4628571" id="Fill-4" fill="#000000" sketch:type="MSShapeGroup"></path>
            <path d="M190.387708,4.10142857 L198.550538,4.10142857 L198.550538,88.7275714 L190.387708,88.7275714 L190.387708,4.10142857 Z" id="Fill-5" fill="#000000" sketch:type="MSShapeGroup"></path>
            <path d="M234.0135,82.7494286 C241.244613,82.7494286 246.142311,79.8162857 249.292009,76.3031429 L254.309264,81.2248571 C249.877425,86.2667143 243.462594,89.6638571 234.0135,89.6638571 C218.149575,89.6638571 207.884198,78.648 207.884198,64.4628571 C207.884198,50.2818571 218.734991,39.1458571 232.846792,39.1458571 C248.360292,39.1458571 257.68983,51.1021429 257.108538,67.1598571 L216.051151,67.1598571 C217.102425,76.4191429 223.397698,82.7494286 234.0135,82.7494286 L234.0135,82.7494286 Z M248.941585,60.9455714 C248.240736,52.6267143 242.996736,46.0602857 232.846792,46.0602857 C223.632689,46.0602857 217.448726,52.0384286 216.166585,60.9455714 L248.941585,60.9455714 L248.941585,60.9455714 Z" id="Fill-6" fill="#000000" sketch:type="MSShapeGroup"></path>
            <path d="M267.843896,9.02314286 L276.241717,9.02314286 L276.241717,81.2248571 L313.683547,81.2248571 L313.683547,88.7275714 L267.843896,88.7275714 L267.843896,9.02314286" id="Fill-7" fill="#000000" sketch:type="MSShapeGroup"></path>
            <path d="M324.163302,40.2022857 L332.326132,40.2022857 L332.326132,88.7275714 L324.163302,88.7275714 L324.163302,40.2022857 Z" id="Fill-8" fill="#000000" sketch:type="MSShapeGroup"></path>
            <path d="M344.034434,40.2022857 L352.201387,40.2022857 L351.966396,50.1617143 C355.120217,43.2472857 360.170453,39.1458571 367.986981,39.1458571 C378.718217,39.1458571 386.068887,46.5325714 386.068887,59.189 L386.068887,88.7275714 L377.901934,88.7275714 L377.901934,60.1252857 C377.901934,51.5702857 373.935953,46.6485714 365.888557,46.6485714 C356.909443,46.6485714 352.201387,52.3905714 352.201387,62.002 L352.201387,88.7275714 L344.034434,88.7275714 L344.034434,40.2022857" id="Fill-9" fill="#000000" sketch:type="MSShapeGroup"></path>
            <path d="M402.662519,88.7275714 L394.227594,88.7275714 L394.227594,4.10142857 L402.662519,4.10142857 L402.662519,58.3687143 C402.662519,60.8295714 402.439896,63.2904286 402.105962,65.2831429 L424.067274,40.2022857 L433.099981,40.2022857 L415.372623,60.5975714 L435.886887,88.7275714 L426.631557,88.7275714 L409.910123,65.9874286 L402.662519,73.9582857 L402.662519,88.7275714" id="Fill-10" fill="#000000" sketch:type="MSShapeGroup"></path>
            <path d="M114.423915,105.191286 L106.25284,105.191286 L106.25284,119.48 L91.1969528,119.48 L91.1969528,105.191286 L83.0258774,105.191286 L83.0258774,141.735429 L91.1969528,141.735429 L91.1969528,127.252 L106.25284,127.252 L106.25284,141.735429 L114.423915,141.735429 L114.423915,105.191286" id="Fill-12" fill="#539DCD" sketch:type="MSShapeGroup"></path>
            <path d="M344.100396,105.191286 L335.929321,105.191286 L335.929321,119.48 L320.873434,119.48 L320.873434,105.191286 L312.698236,105.191286 L312.698236,141.735429 L320.873434,141.735429 L320.873434,127.252 L335.929321,127.252 L335.929321,141.735429 L344.100396,141.735429 L344.100396,105.191286" id="Fill-14" fill="#539DCD" sketch:type="MSShapeGroup"></path>
            <path d="M159.459651,111.679 L159.459651,110.589429 L159.459651,111.679 L160.539783,111.679 L159.459651,111.679 M160.539783,105.191286 L133.017028,105.191286 L133.017028,141.735429 L160.783019,141.735429 L160.783019,134.162286 L141.188104,134.162286 L141.188104,127.102857 L158.338292,127.102857 L158.338292,119.529714 L141.188104,119.529714 L141.188104,112.764429 L160.539783,112.764429 L160.539783,105.191286" id="Fill-16" fill="#539DCD" sketch:type="MSShapeGroup"></path>
            <path d="M190.701028,125.913857 L194.930858,116 L199.19367,125.913857 L190.701028,125.913857 M193.933179,113.68 L194.926736,113.249143 L193.933179,113.68 M212.860226,140.65 L212.860226,139.564571 L212.860226,140.65 L213.853783,140.215 L212.860226,140.65 M198.517557,104.942714 L191.533802,104.942714 L175.537953,141.735429 L184.059453,141.735429 L187.580189,133.437286 L202.322755,133.437286 L205.789896,141.735429 L214.513406,141.735429 L198.517557,104.942714" id="Fill-18" fill="#539DCD" sketch:type="MSShapeGroup"></path>
            <path d="M238.902953,105.191286 L230.731877,105.191286 L230.731877,106.276714 L231.812009,106.276714 L230.731877,106.276714 L230.731877,141.735429 L256.885915,141.735429 L256.885915,134.062857 L238.902953,134.062857 L238.902953,105.191286" id="Fill-20" fill="#539DCD" sketch:type="MSShapeGroup"></path>
            <path d="M285.28267,140.65 L285.28267,139.564571 L285.28267,140.65 L286.366925,140.65 L285.28267,140.65 M297.213594,105.191286 L267.295585,105.191286 L267.295585,112.963286 L278.146377,112.963286 L278.146377,141.735429 L286.366925,141.735429 L286.366925,112.963286 L297.213594,112.963286 L297.213594,105.191286" id="Fill-22" fill="#539DCD" sketch:type="MSShapeGroup"></path>
        </g>
    </g>
</svg>