<?xml version="1.0" encoding="UTF-8" standalone="no"?>
<svg width="70px" height="65px" viewBox="0 0 70 65" version="1.1" xmlns="http://www.w3.org/2000/svg" xmlns:xlink="http://www.w3.org/1999/xlink" xmlns:sketch="http://www.bohemiancoding.com/sketch/ns">
    <!-- Generator: Sketch 3.2.2 (9983) - http://www.bohemiancoding.com/sketch -->
    <title>icon--alert--clear</title>
    <desc>Created with Sketch.</desc>
    <defs></defs>
    <g id="Page-1" stroke="none" stroke-width="1" fill="none" fill-rule="evenodd" sketch:type="MSPage">
        <g id="icon--alert--clear" sketch:type="MSLayerGroup" fill="#7ECAEE">
            <path d="M67.3552564,47.7379861 L43.4682051,6.296875 C41.1914103,2.34902778 38.0557692,0.174236111 34.6401282,0.174236111 C31.2244872,0.174236111 28.0888462,2.34902778 25.8120513,6.296875 L1.92320513,47.6883333 C-0.380512821,51.7183333 -0.613846154,55.9234722 1.2824359,59.2267361 C3.0925641,62.3801389 6.61410256,64.1929167 10.9451282,64.2010417 L58.3378205,64.2010417 C62.6778205,64.1929167 66.2029487,62.38375 68.0076923,59.2375694 C69.8923077,55.9532639 69.6553846,51.7625694 67.3552564,47.7379861 L67.3552564,47.7379861 Z M65.155641,57.581875 C63.9530769,59.678125 61.4662821,60.8833333 58.3333333,60.88875 L10.9478205,60.88875 C7.82474359,60.8833333 5.34064103,59.6736111 4.13358974,57.5701389 C2.84128205,55.3177083 3.07551282,52.3186806 4.77525641,49.3458333 L28.6605128,7.95979167 C30.3225641,5.07541667 32.4467949,3.48743056 34.6401282,3.48743056 C36.8334615,3.48743056 38.9567949,5.07541667 40.6197436,7.95979167 L64.5023077,49.3945833 C66.199359,52.3638194 66.4380769,55.3484028 65.155641,57.581875 L65.155641,57.581875 Z" id="Fill-1" sketch:type="MSShapeGroup"></path>
            <path d="M34.6401282,40.6990278 C35.5483333,40.6990278 36.2869231,39.8350694 36.2869231,38.7725 L36.2869231,13.7998611 C36.2869231,12.7372917 35.5483333,11.8733333 34.6401282,11.8733333 C33.7328205,11.8733333 32.9933333,12.7372917 32.9933333,13.7998611 L32.9933333,38.7725 C32.9933333,39.8350694 33.7328205,40.6990278 34.6401282,40.6990278" id="Fill-2" sketch:type="MSShapeGroup"></path>
            <path d="M34.5162821,44.5575 C32.1712821,44.5575 30.2633333,46.4768056 30.2633333,48.8348611 C30.2633333,51.1938194 32.1712821,53.113125 34.5162821,53.113125 C36.8612821,53.113125 38.7692308,51.1938194 38.7692308,48.8348611 C38.7692308,46.4768056 36.8612821,44.5575 34.5162821,44.5575 L34.5162821,44.5575 Z M36.1038462,48.8348611 C36.1038462,49.7159722 35.3912821,50.4327778 34.5162821,50.4327778 C33.6403846,50.4327778 32.9278205,49.7159722 32.9278205,48.8348611 C32.9278205,47.9546528 33.6403846,47.2378472 34.5162821,47.2378472 C35.3912821,47.2378472 36.1038462,47.9546528 36.1038462,48.8348611 L36.1038462,48.8348611 Z" id="Fill-3" sketch:type="MSShapeGroup"></path>
        </g>
    </g>
</svg>