<?xml version="1.0" encoding="UTF-8" standalone="no"?>
<svg width="46px" height="46px" viewBox="0 0 46 46" version="1.1" xmlns="http://www.w3.org/2000/svg" xmlns:xlink="http://www.w3.org/1999/xlink" xmlns:sketch="http://www.bohemiancoding.com/sketch/ns">
    <!-- Generator: Sketch 3.2.2 (9983) - http://www.bohemiancoding.com/sketch -->
    <title>icon--face--work</title>
    <desc>Created with Sketch.</desc>
    <defs></defs>
    <g id="Page-1" stroke="none" stroke-width="1" fill="none" fill-rule="evenodd" sketch:type="MSPage">
        <g id="icon--face--work" sketch:type="MSLayerGroup" transform="translate(-1.000000, 0.000000)">
            <path d="M46.4778003,23.0256678 C46.4778003,35.5475616 36.4300459,45.6983723 24.0352808,45.6983723 C11.6405156,45.6983723 1.59276123,35.5475616 1.59276123,23.0256678 C1.59276123,10.5058502 11.6405156,0.352963348 24.0352808,0.352963348 C36.4300459,0.352963348 46.4778003,10.5058502 46.4778003,23.0256678" id="Fill-2" fill="#9CB1C1" sketch:type="MSShapeGroup"></path>
            <path d="M34.0378213,16.7117764 C34.0378213,18.2087562 32.8355435,19.4212891 31.3558169,19.4212891 C29.8740352,19.4212891 28.6717573,18.2087562 28.6717573,16.7117764 C28.6717573,15.2147965 29.8740352,14.0001874 31.3558169,14.0001874 C32.8355435,14.0001874 34.0378213,15.2147965 34.0378213,16.7117764" id="Fill-4" fill="#FFFFFF" sketch:type="MSShapeGroup"></path>
            <path d="M19.7379082,16.7117764 C19.7379082,18.2087562 18.5356304,19.4212891 17.0559038,19.4212891 C15.5720669,19.4212891 14.3718442,18.2087562 14.3718442,16.7117764 C14.3718442,15.2147965 15.5720669,14.0001874 17.0559038,14.0001874 C18.5356304,14.0001874 19.7379082,15.2147965 19.7379082,16.7117764" id="Fill-5" fill="#FFFFFF" sketch:type="MSShapeGroup"></path>
            <path d="M17.9108569,29.459982 L30.7762573,29.2959579" id="Stroke-14" stroke="#FFFFFF" stroke-width="1.821" stroke-linecap="round" sketch:type="MSShapeGroup"></path>
        </g>
    </g>
</svg>