<?xml version="1.0" encoding="UTF-8" standalone="no"?>
<svg width="46px" height="46px" viewBox="0 0 46 46" version="1.1" xmlns="http://www.w3.org/2000/svg" xmlns:xlink="http://www.w3.org/1999/xlink" xmlns:sketch="http://www.bohemiancoding.com/sketch/ns">
    <!-- Generator: Sketch 3.2.2 (9983) - http://www.bohemiancoding.com/sketch -->
    <title>icon--face--bad</title>
    <desc>Created with Sketch.</desc>
    <defs></defs>
    <g id="Page-1" stroke="none" stroke-width="1" fill="none" fill-rule="evenodd" sketch:type="MSPage">
        <g id="icon--face--bad" sketch:type="MSLayerGroup" transform="translate(-1.000000, 0.000000)">
            <path d="M46.5045176,23.2021495 C46.5045176,35.7240433 36.4567632,45.8727777 24.061998,45.8727777 C11.6672329,45.8727777 1.61947852,35.7240433 1.61947852,23.2021495 C1.61947852,10.6802557 11.6672329,0.529445022 24.061998,0.529445022 C36.4567632,0.529445022 46.5045176,10.6802557 46.5045176,23.2021495" id="Fill-1" fill="#D91C5C" sketch:type="MSShapeGroup"></path>
            <path d="M35.1208989,32.7466937 C34.9914229,26.5947501 30.024063,21.642882 23.9037495,21.642882 C17.7813809,21.642882 12.8119658,26.5947501 12.6845449,32.7466937 L35.1208989,32.7466937" id="Fill-7" fill="#FFFFFF" sketch:type="MSShapeGroup"></path>
            <path d="M28.7046401,14.7476392 C30.6940503,15.308228 32.4615015,16.1823314 33.8857383,17.286899" id="Fill-10" fill="#FFFFFF" sketch:type="MSShapeGroup"></path>
            <path d="M28.7046401,14.7476392 C30.6940503,15.308228 32.4615015,16.1823314 33.8857383,17.286899" id="Stroke-11" stroke="#FFFFFF" stroke-width="1.559" stroke-linecap="round" sketch:type="MSShapeGroup"></path>
            <path d="M19.0905278,14.6251401 C17.0148003,15.1504326 15.1610317,16.0141547 13.6607534,17.1228749" id="Fill-12" fill="#FFFFFF" sketch:type="MSShapeGroup"></path>
            <path d="M19.0905278,14.6251401 C17.0148003,15.1504326 15.1610317,16.0141547 13.6607534,17.1228749" id="Stroke-13" stroke="#FFFFFF" stroke-width="1.559" stroke-linecap="round" sketch:type="MSShapeGroup"></path>
        </g>
    </g>
</svg>