<?xml version="1.0" encoding="UTF-8" standalone="no"?>
<svg width="23px" height="22px" viewBox="0 0 23 22" version="1.1" xmlns="http://www.w3.org/2000/svg" xmlns:xlink="http://www.w3.org/1999/xlink" xmlns:sketch="http://www.bohemiancoding.com/sketch/ns">
    <!-- Generator: Sketch 3.2.2 (9983) - http://www.bohemiancoding.com/sketch -->
    <title>medication--work</title>
    <desc>Created with Sketch.</desc>
    <defs></defs>
    <g id="Page-1" stroke="none" stroke-width="1" fill="none" fill-rule="evenodd" sketch:type="MSPage">
        <g id="medication--work" sketch:type="MSLayerGroup">
            <path d="M22.615,11.09 C22.615,17.121 17.726,22.01 11.695,22.01 C5.664,22.01 0.775,17.121 0.775,11.09 C0.775,5.06 5.664,0.17 11.695,0.17 C17.726,0.17 22.615,5.06 22.615,11.09" id="Fill-2" fill="#9CB1C1" sketch:type="MSShapeGroup"></path>
            <path d="M16.562,8.049 C16.562,8.77 15.977,9.354 15.257,9.354 C14.536,9.354 13.951,8.77 13.951,8.049 C13.951,7.328 14.536,6.743 15.257,6.743 C15.977,6.743 16.562,7.328 16.562,8.049" id="Fill-4" fill="#FFFFFF" sketch:type="MSShapeGroup"></path>
            <path d="M9.604,8.049 C9.604,8.77 9.019,9.354 8.299,9.354 C7.577,9.354 6.993,8.77 6.993,8.049 C6.993,7.328 7.577,6.743 8.299,6.743 C9.019,6.743 9.604,7.328 9.604,8.049" id="Fill-5" fill="#FFFFFF" sketch:type="MSShapeGroup"></path>
            <path d="M8.715,14.189 L14.975,14.11" id="Stroke-14" stroke="#FFFFFF" stroke-width="1.821" stroke-linecap="round" sketch:type="MSShapeGroup"></path>
        </g>
    </g>
</svg>