<?xml version="1.0" encoding="UTF-8" standalone="no"?>
<svg width="46px" height="46px" viewBox="0 0 46 46" version="1.1" xmlns="http://www.w3.org/2000/svg" xmlns:xlink="http://www.w3.org/1999/xlink" xmlns:sketch="http://www.bohemiancoding.com/sketch/ns">
    <!-- Generator: Sketch 3.2.2 (9983) - http://www.bohemiancoding.com/sketch -->
    <title>icon--face--good</title>
    <desc>Created with Sketch.</desc>
    <defs></defs>
    <g id="Page-1" stroke="none" stroke-width="1" fill="none" fill-rule="evenodd" sketch:type="MSPage">
        <g id="icon--face--good" sketch:type="MSLayerGroup">
            <path d="M45.24675,22.9363888 C45.24675,35.4582827 35.1989956,45.6090933 22.8042305,45.6090933 C10.4115205,45.6090933 0.363766113,35.4582827 0.363766113,22.9363888 C0.363766113,10.414495 10.4115205,0.263684383 22.8042305,0.263684383 C35.1989956,0.263684383 45.24675,10.414495 45.24675,22.9363888" id="Fill-3" fill="#009345" sketch:type="MSShapeGroup"></path>
            <path d="M8.81875928,21.3791976 C8.97906299,29.1070187 15.2185767,35.3254023 22.9069893,35.3254023 C30.5933467,35.3254023 36.8328604,29.1070187 36.9952192,21.3791976 L8.81875928,21.3791976" id="Fill-6" fill="#FFFFFF" sketch:type="MSShapeGroup"></path>
            <path d="M18.648665,17.6357099 C18.7822515,16.3754231 18.858293,16.5809723 18.858293,16.2010177 C18.858293,14.6230639 17.5902495,13.1593041 16.0262607,13.1593041 C14.462272,13.1593041 13.1942285,14.7123428 13.1942285,16.2923729 C13.1942285,16.6723275 13.2723252,16.3754231 13.4038564,17.6357099 L18.648665,17.6357099" id="Fill-8" fill="#FFFFFF" sketch:type="MSShapeGroup"></path>
            <path d="M32.7492261,17.6357099 C32.8828125,16.3754231 32.958854,16.5809723 32.958854,16.2010177 C32.958854,14.6230639 31.6908105,13.1593041 30.1268218,13.1593041 C28.562833,13.1593041 27.2947896,14.7123428 27.2947896,16.2923729 C27.2947896,16.6723275 27.3728862,16.3754231 27.5044175,17.6357099 L32.7492261,17.6357099" id="Fill-9" fill="#FFFFFF" sketch:type="MSShapeGroup"></path>
        </g>
    </g>
</svg>