<svg width="449" height="260" viewBox="0 0 449 260" xmlns="http://www.w3.org/2000/svg"><title>Logo</title><desc>Created with Sketch.</desc><g fill="none"><path d="M215.896.29c-.08 0-.17.003-.27.006l-.888.045-7.09.35-1.77.088-1.76.214-3.51.444c-4.7.435-9.266 1.578-13.83 2.47-2.25.588-4.47 1.26-6.687 1.88-1.102.328-2.22.6-3.303.975-1.076.397-2.148.79-3.217 1.185l-3.196 1.176c-1.058.403-2.133.745-3.142 1.245l-6.088 2.77c-7.903 3.95-15.293 8.313-21.658 13.322-3.304 2.343-6.2 5.02-9.066 7.517-1.47 1.21-2.735 2.594-4.036 3.887l-3.793 3.84c-2.298 2.67-4.527 5.213-6.55 7.702-1.897 2.594-3.738 5.02-5.388 7.355-1.526 2.42-2.955 4.682-4.276 6.775-1.28 2.116-2.268 4.173-3.26 5.97-.974 1.805-1.848 3.413-2.445 4.893-.644 1.456-1.19 2.695-1.636 3.698-.888 2.01-1.363 3.08-1.363 3.08s.5-1.06 1.432-3.048l1.718-3.66c.63-1.467 1.54-3.055 2.55-4.835 1.03-1.77 2.056-3.79 3.38-5.87l4.405-6.652c1.695-2.287 3.58-4.66 5.52-7.192 2.066-2.43 4.335-4.904 6.672-7.5l3.845-3.722c1.317-1.253 2.596-2.596 4.082-3.76 2.894-2.41 5.81-4.99 9.13-7.234 6.392-4.808 13.78-8.946 21.634-12.656l6.042-2.59c1-.47 2.067-.78 3.115-1.15 1.05-.362 2.104-.723 3.16-1.086 1.058-.362 2.117-.727 3.18-1.092 1.07-.342 2.173-.584 3.26-.882 2.19-.56 4.376-1.17 6.59-1.695 4.49-.773 8.972-1.795 13.574-2.114l3.435-.358 1.72-.172 1.73-.045 6.92-.187.866-.024c.03-.004.062-.004.1-.004.19 0 .492.024.71.032l1.753.085 3.5.17 3.498.172c1.15.1 2.272.275 3.407.407 2.262.304 4.52.528 6.764.888 2.24.452 4.47.905 6.69 1.354 2.24.37 4.382 1.115 6.55 1.688 2.155.627 4.332 1.14 6.396 1.97l6.214 2.254c2.016.85 3.984 1.774 5.953 2.644.98.45 1.97.86 2.925 1.333.94.507 1.875 1.01 2.807 1.514 1.85 1.023 3.73 1.953 5.5 3.022 3.472 2.26 6.992 4.28 10.083 6.74 1.57 1.192 3.174 2.293 4.65 3.51 1.453 1.246 2.882 2.475 4.288 3.682.7.606 1.395 1.205 2.084 1.8l1.923 1.907c1.27 1.256 2.514 2.49 3.735 3.7 2.35 2.5 4.455 5.038 6.53 7.374 1.89 2.494 3.68 4.86 5.36 7.083 1.518 2.335 2.94 4.52 4.253 6.542.69.99 1.206 2.03 1.748 2.99l1.526 2.764c1.882 3.19 3 5.947 3.9 7.863l4.51 1.364 1.322-4.382c-.975-1.984-2.205-4.762-4.177-7.953-.528-.91-1.084-1.865-1.668-2.867-.593-.998-1.16-2.073-1.905-3.098-1.424-2.09-2.967-4.35-4.614-6.762l-5.775-7.292c-2.223-2.402-4.485-5-6.998-7.557l-3.984-3.778c-.676-.64-1.36-1.29-2.05-1.94-.73-.607-1.47-1.218-2.214-1.833L296.37 27.3c-1.567-1.23-3.262-2.345-4.922-3.547-3.274-2.48-6.978-4.51-10.635-6.77-1.865-1.07-3.837-1.994-5.78-3.01l-2.944-1.504c-1.003-.467-2.04-.873-3.063-1.315-2.06-.858-4.12-1.77-6.226-2.598l-6.48-2.193c-2.15-.806-4.414-1.29-6.652-1.888-2.254-.542-4.48-1.254-6.797-1.59l-6.925-1.24c-2.337-.323-4.713-.51-7.074-.768-1.18-.11-2.37-.264-3.545-.337l-3.5-.09-3.504-.095L216.57.31c-.244-.003-.418-.02-.672-.02" fill="#9AD5F0"/><path d="M336.673 66.26l-3.69 12.24-12.385-3.748-1.28 4.254 16.628 5.033 4.97-16.494-4.243-1.285" fill="#9AD5F0"/><path d="M123.33 217.005l-1.018 17.2 4.424.263.46-7.765c-.6-.545-1.118-1.027-1.564-1.427-1.137-1.038-1.744-1.59-1.744-1.59l4.663-4.75s.56.542 1.607 1.56c.424.406.92.898 1.495 1.455l8.756.522.263-4.436-17.34-1.03" fill="#9AD5F0"/><path d="M309.624 216.926l-1.628 1.626c-1.082 1.04-2.57 2.672-4.683 4.508-1.047.927-2.17 1.993-3.456 3.08l-4.226 3.448c-1.54 1.188-3.23 2.388-4.98 3.686-1.78 1.26-3.722 2.48-5.708 3.81-2.053 1.223-4.18 2.515-6.43 3.763-2.3 1.16-4.6 2.51-7.113 3.59l-3.774 1.732-3.95 1.577-2.005.798c-.678.254-1.372.473-2.063.71l-4.188 1.423-4.326 1.226-2.187.612c-.74.17-1.484.336-2.23.504-1.493.33-2.986.697-4.5 1-1.522.26-3.05.52-4.587.784-6.017.905-12.178 1.517-18.353 1.517h-.43l-2.367.025-.592.006-.555-.02-1.197-.05-4.782-.2c-3.108-.31-6.193-.5-9.265-1.008-3.08-.37-6.086-1.03-9.065-1.597-2.944-.736-5.88-1.348-8.686-2.256-5.67-1.61-10.973-3.708-15.896-5.884-1.22-.57-2.423-1.134-3.61-1.687-1.188-.545-2.305-1.197-3.43-1.773-2.263-1.14-4.358-2.408-6.375-3.606-2.042-1.16-3.864-2.49-5.668-3.636-1.77-1.196-3.38-2.436-4.927-3.54-3.01-2.338-5.592-4.422-7.606-6.27-1.246-1.063-2.28-2.04-3.138-2.873-.576-.556-1.07-1.048-1.495-1.454l-1.606-1.56-4.662 4.75s.607.552 1.744 1.59c.446.4.965.882 1.564 1.427.94.855 2.082 1.866 3.45 2.963 2.18 1.87 4.96 3.972 8.193 6.315 1.66 1.11 3.384 2.348 5.278 3.54 1.926 1.14 3.875 2.462 6.045 3.61 2.15 1.182 4.375 2.432 6.773 3.545 1.196.564 2.38 1.202 3.637 1.73l3.814 1.633c5.197 2.1 10.774 4.095 16.7 5.572 2.936.843 5.998 1.383 9.062 2.04 3.1.49 6.222 1.063 9.41 1.344 3.16.42 6.42.52 9.662.73 1.593.014 3.19.03 4.787.043l1.197.01.643.004.606-.025 2.43-.103c6.476-.183 12.915-1.026 19.167-2.177l4.654-.955c1.534-.356 3.045-.782 4.554-1.166.754-.196 1.505-.39 2.254-.586l2.205-.696 4.357-1.39c1.414-.533 2.817-1.06 4.208-1.582.692-.266 1.39-.512 2.07-.79.673-.294 1.342-.586 2.01-.876l3.947-1.73c1.27-.635 2.526-1.26 3.764-1.88 2.505-1.175 4.788-2.615 7.068-3.86 2.23-1.333 4.337-2.707 6.365-4.008 1.958-1.405 3.872-2.696 5.62-4.02 1.72-1.366 3.377-2.627 4.885-3.87 1.474-1.283 2.855-2.485 4.13-3.597 1.255-1.133 2.35-2.242 3.366-3.206 2.06-1.907 3.49-3.584 4.54-4.66 1.027-1.093 1.574-1.678 1.574-1.678" fill="#9AD5F0"/><path d="M.574 107.51c0-24.782 18.813-42.067 42.09-42.067 14.473 0 25.568 5.438 32.563 15.956l-6.634 4.834C63.288 78.377 54.483 73.3 42.665 73.3c-19.178 0-33.047 14.625-33.047 34.21 0 19.582 13.87 34.21 33.047 34.21 11.94 0 21.106-5.197 27.014-13.78l6.753 4.714c-7.237 10.64-19.055 16.924-33.768 16.924-23.278 0-42.09-17.288-42.09-42.07" fill="#000"/><path d="M84.106 98.564h8.44v50.046h-8.44V98.564z" fill="#000"/><path d="M108.044 98.564h8.442l-.243 9.792c3.136-7.616 8.684-10.76 14.595-10.76 3.74 0 6.39.848 8.683 2.42l-3.256 7.373c-1.567-1.09-3.738-1.936-6.874-1.936-7.115 0-12.904 5.077-12.904 16.804v26.352h-8.442V98.564" fill="#000"/><path d="M140.673 123.586c0-14.626 11.217-26.11 25.93-26.11 8.925 0 15.076 3.384 19.66 8.945l-6.032 4.96c-3.013-3.99-7.354-6.41-13.626-6.41-10.613 0-17.247 7.98-17.247 18.616 0 10.64 6.634 18.618 17.247 18.618 6.874 0 11.214-2.78 14.353-6.528l5.788 4.957c-4.704 5.682-10.854 8.945-20.14 8.945-14.715 0-25.932-11.363-25.932-25.992" fill="#000"/><path d="M195.072 61.332h8.442v87.278h-8.442V61.332z" fill="#000"/><path d="M240.18 142.445c7.475 0 12.54-3.022 15.797-6.65l5.187 5.08c-4.582 5.196-11.216 8.703-20.985 8.703-16.404 0-27.017-11.363-27.017-25.992 0-14.626 11.216-26.11 25.808-26.11 16.043 0 25.69 12.332 25.088 28.892h-42.452c1.086 9.548 7.597 16.077 18.573 16.077zm15.436-22.485c-.724-8.58-6.15-15.35-16.645-15.35-9.524 0-15.918 6.164-17.244 15.35h33.89z" fill="#000"/><path d="M275.16 66.41h8.683v74.464h38.712v7.736H275.16v-82.2" fill="#000"/><path d="M333.392 98.564h8.44v50.046h-8.44V98.564z" fill="#000"/><path d="M353.94 98.564h8.444l-.24 10.276c3.256-7.132 8.482-11.364 16.563-11.364 11.095 0 18.695 7.617 18.695 20.672v30.462h-8.444v-29.495c0-8.825-4.1-13.902-12.422-13.902-9.287 0-14.152 5.922-14.152 15.837v27.56h-8.443V98.564" fill="#000"/><path d="M414.56 148.61h-8.723V61.332h8.723V117.3c0 2.54-.23 5.08-.576 7.134l22.708-25.87h9.338L427.7 119.6l21.212 29.01h-9.57l-17.29-23.45-7.492 8.22v15.23" fill="#000"/><path d="M114.29 167.832h-3.977v14.735h-20.04v-14.735h-3.978v33.21h3.98v-13.82h1.117-1.118v-1.12h20.04l-.002 14.94h3.98v-33.21" fill="#539DCD"/><path d="M90.274 182.567h20.04v-14.735h3.977v33.21h-3.978V186.1H90.275v1.12h1.118-1.118v13.82h-3.98v-33.21h3.98v14.735m26.253-16.976h-8.45v14.737H92.51V165.59h-8.45v37.692h8.45v-14.94h15.567v14.94h8.45v-37.69" fill="#539DCD"/><path d="M351.77 167.832h-3.977v14.735h-20.04v-14.735h-3.977v33.21h3.978v-13.82h1.12-1.12v-1.12h20.04v14.94h3.977v-33.21" fill="#539DCD"/><path d="M327.754 182.567h20.04v-14.735h3.977v33.21h-3.977V186.1h-20.04v1.12h1.12-1.12v13.82h-3.977v-33.21h3.978v14.735m26.253-16.976h-8.45v14.737H329.99V165.59h-8.45v37.692h8.45v-14.94h15.567v14.94h8.45v-37.69" fill="#539DCD"/><path d="M161.972 167.832h-23.988v33.21h24.24v-3.33h-20.262V185.95h17.735v-3.33h-17.735v-11.46h20.01v-3.328" fill="#539DCD"/><path d="M163.09 172.28v-1.12 1.12h1.118-1.117m-25.106 28.76v-33.208h23.988v3.328h-20.01v11.46h17.735v3.33h-17.735v11.763h20.262v3.328h-24.24m26.224-35.45h-28.46v37.692h28.712v-7.81h-20.262v-7.282h17.735v-7.81h-17.735V173.4h20.01v-7.81" fill="#539DCD"/><path d="M198.737 173.46l1.023-2.392 7.82 18.135h-15.575l6.732-15.742m3.28-5.883h-4.3l-14.586 33.464h3.92l3.64-8.56h18.206l3.587 8.56h4.117l-14.584-33.463" fill="#539DCD"/><path d="M195.396 186.962l4.372-10.224 4.41 10.224h-8.782m3.342-12.615l1.027-.444-1.027.444m1.022-3.28l-7.755 18.136h15.574l-7.82-18.135m18.548 31.094v-1.12 1.12l1.025-.448-1.025.448m-35.177-1.12l14.588-33.465h4.298L216.6 201.04h-4.117l-3.587-8.56H190.69l-3.64 8.56h-3.92m20.348-35.703h-7.222l-16.542 37.945h8.815l3.636-8.56h15.244l3.588 8.56h9.02l-16.54-37.945" fill="#539DCD"/><path d="M243 167.832h-3.978v33.21h22.573v-3.432H243v-29.778" fill="#539DCD"/><path d="M239.022 167.832H243v29.778h18.595v3.43h-22.573v-33.208m6.214-2.24h-8.45v1.12h1.12-1.12v36.57h27.044v-7.913h-18.594v-29.78" fill="#539DCD"/><path d="M303.29 167.832H276.83v3.532h11.218v29.677h4.028v-29.676h11.217v-3.532" fill="#539DCD"/><path d="M293.193 202.162v-1.12 1.12h1.117-1.117m-16.365-30.798v-3.532h26.463v3.532h-11.216v29.677h-4.028v-29.676h-11.218m28.698-5.773h-30.932v8.016h11.215v29.676h8.5v-29.676h11.216v-8.015" fill="#539DCD"/></g></svg>