<?xml version="1.0" encoding="UTF-8" standalone="no"?>
<svg width="53px" height="70px" viewBox="0 0 53 70" version="1.1" xmlns="http://www.w3.org/2000/svg" xmlns:xlink="http://www.w3.org/1999/xlink" xmlns:sketch="http://www.bohemiancoding.com/sketch/ns">
    <!-- Generator: Sketch 3.2.2 (9983) - http://www.bohemiancoding.com/sketch -->
    <title>icon--report--clear</title>
    <desc>Created with Sketch.</desc>
    <defs></defs>
    <g id="Page-1" stroke="none" stroke-width="1" fill="none" fill-rule="evenodd" sketch:type="MSPage">
        <g id="icon--report--clear" sketch:type="MSLayerGroup">
            <g id="Fill-1-+-Imported-Layers" sketch:type="MSShapeGroup">
                <path d="M16.5141178,0.624160766 C12.4767658,0.624531099 11.5123629,0.624160732 7.77546059,0.624160719 L4.95055138,0.624160719 C2.58586697,0.624160719 0.659043478,2.53280663 0.659043478,4.87751458 L0.659043478,65.7443143 C0.659043478,68.0913541 2.58586697,70 4.95055138,70 L48.1316427,70 C50.4975042,70 52.4243277,68.0913541 52.4243277,65.7443143 L52.4243277,13.7783105 L40.2007101,0.624160719 C35.9341727,0.624160703 20.5477654,0.623790772 16.5141178,0.624160766 Z M41.2176774,6.99020022 L46.5732345,12.7592778 L41.2176774,12.7592778 L41.2176774,6.99020022 L41.2176774,6.99020022 Z M4.95055138,66.4275559 C4.57389682,66.4275559 4.2655109,66.1185814 4.2655109,65.7443143 L4.2655109,4.87751458 C4.2655109,4.50324743 4.57389682,4.19660486 4.95055138,4.19660486 L21.7234498,4.19660486 L25.8537025,4.19660486 L37.6053248,4.19660486 L37.6053248,14.5454999 C37.6053248,15.5295543 38.4198403,16.3270582 39.4132667,16.3270582 L48.8178603,16.3270582 L48.8178603,65.7443143 C48.8178603,66.1185814 4.95055138,66.4275559 4.95055138,66.4275559 Z" id="Fill-1" fill="#7ECAEE"></path>
                <path d="M43.3647536,31.2207263 C42.8147465,31.2207263 42.3423823,31.5293972 42.0973081,31.9794343 L38.9460447,31.9141551 L36.7494861,27.2940341 C36.8809153,27.076581 36.960727,26.8249753 36.960727,26.5521863 C36.960727,25.7550025 36.3122564,25.1086957 35.5124038,25.1086957 C34.7125511,25.1086957 34.0640805,25.7550025 34.0640805,26.5521863 C34.0640805,26.8651803 34.1664477,27.152668 34.3360477,27.3891428 L29.7247495,38.3893281 C29.5716324,38.416996 29.4293592,38.4718997 29.2970626,38.5436635 L21.5288621,34.4557189 C21.5566227,34.34375 21.5757081,34.2287549 21.5757081,34.1081398 C21.5757081,33.3105237 20.9272375,32.6642169 20.1273848,32.6642169 C19.3275321,32.6642169 18.6790616,33.3105237 18.6790616,34.1081398 C18.6790616,34.2598814 18.708991,34.4034091 18.7528007,34.5408844 L10.243305,40.7264081 C10.1318288,40.6991724 10.0173163,40.6801507 9.89759864,40.6801507 C9.09774595,40.6801507 8.44927536,41.3268898 8.44927536,42.1240736 C8.44927536,42.9212574 9.09774595,43.5675642 9.89759864,43.5675642 C10.6974513,43.5675642 11.3459219,42.9212574 11.3459219,42.1240736 C11.3459219,42.0367465 11.3350779,41.9524457 11.3203301,41.8694417 L20.0258851,35.5412549 C20.0601521,35.5438488 20.0926841,35.5516304 20.1273848,35.5516304 C20.1672907,35.5516304 20.2050278,35.5429842 20.2444999,35.539958 L28.547526,39.9089056 C28.6008784,40.6576705 29.2207209,41.2503706 29.985439,41.2503706 C30.7852917,41.2503706 31.4337623,40.6036314 31.4337623,39.8064476 C31.4337623,39.498209 31.3348651,39.2137475 31.1696027,38.979002 L35.5774677,28.463871 L37.741928,33.0152544 C37.8685858,33.2815588 38.135348,33.4540514 38.431172,33.4601038 L42.2191945,33.5387846 C42.4837879,33.8824728 42.8962933,34.1081398 43.3647536,34.1081398 C44.1646063,34.1081398 44.8130769,33.461833 44.8130769,32.6642169 C44.8130769,31.8670331 44.1646063,31.2207263 43.3647536,31.2207263" id="Imported-Layers" fill="#50B2E2"></path>
            </g>
        </g>
    </g>
</svg>