<?xml version="1.0" encoding="UTF-8" standalone="no"?>
<svg width="75px" height="64px" viewBox="0 0 75 64" version="1.1" xmlns="http://www.w3.org/2000/svg" xmlns:xlink="http://www.w3.org/1999/xlink" xmlns:sketch="http://www.bohemiancoding.com/sketch/ns">
    <!-- Generator: Sketch 3.2.2 (9983) - http://www.bohemiancoding.com/sketch -->
    <title>icon--heart--clear</title>
    <desc>Created with Sketch.</desc>
    <defs></defs>
    <g id="Page-1" stroke="none" stroke-width="1" fill="none" fill-rule="evenodd" sketch:type="MSPage">
        <path d="M54.1300781,0 C49.0453125,0 44.1574219,1.87339286 40.3664062,5.27660714 C39.2238281,6.30035714 38.2054688,7.4425 37.3289063,8.67982143 C36.4535156,7.44366071 35.4351562,6.30151786 34.2925781,5.27428571 C30.5003906,1.87339286 25.6125,0 20.5289063,0 C9.20859375,0 0,9.12205357 0,20.3345536 C0,27.8153571 2.34257813,33.7152679 7.83398438,40.0620536 C15.6527344,49.0958929 35.4820312,62.9339286 36.3222656,63.5177679 C36.61875,63.724375 36.9667969,63.8334821 37.3289063,63.8334821 C37.6921875,63.8334821 38.0402344,63.724375 38.3367187,63.5177679 C39.1769531,62.9339286 59.00625,49.0970536 66.825,40.0620536 C72.3164062,33.7152679 74.6589844,27.8153571 74.6589844,20.3345536 C74.6589844,9.12205357 65.4492188,0 54.1300781,0 L54.1300781,0 Z M68.6027344,31.370625 L42.1125,31.3578571 L39.0855469,21.393125 C38.8558594,20.6375 38.1597656,20.1140179 37.3628906,20.1000893 C36.5449219,20.0966071 35.8511719,20.5829464 35.5933594,21.3304464 L28.3910156,42.2453571 L18.7664062,14.4752679 C18.5144531,13.7509821 17.83125,13.26 17.0589844,13.2483929 L17.0308594,13.2483929 C16.2691406,13.2483929 15.5847656,13.715 15.3152344,14.4241964 L7.7671875,34.2573214 C4.81289062,29.8733036 3.50507812,25.5264286 3.50507812,20.3345536 C3.50507812,11.0360714 11.1421875,3.47169643 20.5289063,3.47169643 C24.7417969,3.47169643 28.7941406,5.02589286 31.9382813,7.84758929 C33.5238281,9.270625 34.8105469,10.9501786 35.7609375,12.8409821 C36.046875,13.40625 36.6480469,13.7579464 37.3289063,13.7579464 C38.0109375,13.7579464 38.6121094,13.40625 38.8980469,12.8398214 C39.8484375,10.9501786 41.1339844,9.27178571 42.7195312,7.84875 C45.8648437,5.02589286 49.9171875,3.47169643 54.1300781,3.47169643 C63.5167969,3.47169643 71.1539063,11.0360714 71.1539063,20.3345536 C71.1539063,24.3877679 70.3570313,27.9267857 68.6027344,31.370625 L68.6027344,31.370625 Z M66.375,35.0025 C65.7117188,35.92875 64.9804688,36.8596429 64.1648438,37.8021429 C57.5800781,45.410625 41.5300781,56.98875 37.3289063,59.9671429 C33.1277344,56.9875893 17.0765625,45.4071429 10.4953125,37.8021429 C10.4578125,37.7591964 10.4238281,37.71625 10.3863281,37.6733036 L16.9511719,20.42625 L26.6613281,48.4458929 C26.915625,49.1794643 27.6128906,49.6716071 28.3957031,49.6716071 L28.3980469,49.6716071 C29.1820313,49.6716071 29.878125,49.1771429 30.1324219,48.4424107 L37.2199219,27.860625 L38.9929688,33.6966964 C39.2261719,34.4639286 39.9386719,34.9897321 40.7484375,34.9897321 L66.375,35.0025 L66.375,35.0025 Z" id="icon--heart--clear" fill="#7ECAEE" sketch:type="MSShapeGroup"></path>
    </g>
</svg>