<?xml version="1.0" encoding="UTF-8"?>
<svg width="20px" height="17px" viewBox="0 0 20 17" version="1.1" xmlns="http://www.w3.org/2000/svg" xmlns:xlink="http://www.w3.org/1999/xlink">
    <!-- Generator: Sketch 51.3 (57544) - http://www.bohemiancoding.com/sketch -->
    <title>noun_Callback_399346</title>
    <desc>Created with Sketch.</desc>
    <defs></defs>
    <g id="Notes-&amp;-Activities" stroke="none" stroke-width="1" fill="none" fill-rule="evenodd">
        <g id="Scheduled-Activity" transform="translate(-165.000000, -313.000000)" fill="#5CC0DD" fill-rule="nonzero">
            <g id="noun_Callback_399346" transform="translate(175.000000, 321.500000) scale(-1, 1) translate(-175.000000, -321.500000) translate(165.000000, 313.000000)">
                <path d="M16.1849315,14.099697 L14.1063014,11.9947879 C13.8753425,11.7609091 13.4863014,11.7472576 13.2375342,11.9643939 L12.429863,12.6696364 C12.3731507,12.5593939 12.3043836,12.4517273 12.219726,12.3502424 C12.219726,12.3502424 10.2961644,10.5214545 9.73945205,9.84995455 C9.18246575,9.17845455 7.76273973,6.97978788 7.76273973,6.97978788 C7.72383562,6.93290909 7.68273973,6.88886364 7.64027397,6.84687879 C7.76876712,6.85718182 7.90109589,6.83142424 8.01835616,6.76213636 L8.97013699,6.19881818 C9.25726027,6.02881818 9.34356164,5.67207576 9.16273973,5.40187879 L7.53479452,2.97113636 C7.3539726,2.70119697 6.97479452,2.62006061 6.68767123,2.79006061 L5.73561644,3.35337879 C5.65972603,3.39845455 5.59863014,3.45692424 5.55205479,3.52312121 L5.16082192,3.7899697 C4.42794521,4.28940909 4.34410959,4.97378788 4.65260274,5.91934848 C4.65260274,5.91934848 5.37342466,8.00184848 7.3769863,10.5995 C9.29945205,13.0915455 10.8610959,14.6769242 12.3342466,15.7131515 C13.1936986,16.318197 13.890411,16.5556818 14.6230137,16.0559848 L15.0334247,15.7762576 C15.140274,15.7559091 15.2430137,15.7105758 15.3284932,15.6356212 L16.1526027,14.9162121 C16.4016438,14.6990758 16.4158904,14.3335758 16.1849315,14.099697 Z" id="Shape"></path>
                <path d="M18.0317808,8.03842424 C17.7953425,3.60116667 13.8813699,0.0597575758 9.10410959,0.0597575758 C4.17479452,0.0597575758 0.164383562,3.82989394 0.164383562,8.46419697 C0.164383562,13.0985 4.17479452,16.8686364 9.10410959,16.8686364 C9.40657534,16.8686364 9.65205479,16.6378485 9.65205479,16.3534848 C9.65205479,16.0691212 9.40657534,15.8383333 9.10410959,15.8383333 C4.77917808,15.8383333 1.26027397,12.5302879 1.26027397,8.46419697 C1.26027397,4.39810606 4.77917808,1.09006061 9.10410959,1.09006061 C13.2764384,1.09006061 16.6972603,4.16937879 16.9331507,8.03765152 L15.1769863,8.03636364 L17.4931507,10.4926061 L19.8139726,8.03945455 L18.0317808,8.03842424 Z" id="Shape"></path>
            </g>
        </g>
    </g>
</svg>