<?xml version="1.0" encoding="UTF-8" standalone="no"?>
<svg width="335px" height="139px" viewBox="0 0 335 139" version="1.1" xmlns="http://www.w3.org/2000/svg" xmlns:xlink="http://www.w3.org/1999/xlink" xmlns:sketch="http://www.bohemiancoding.com/sketch/ns">
    <!-- Generator: Sketch 3.2.2 (9983) - http://www.bohemiancoding.com/sketch -->
    <title>graph--blood-sugar</title>
    <desc>Created with Sketch.</desc>
    <defs>
        <path d="M67.415286,27.5063492 L1.74523404,27.5063492 L1.74523404,1.70771126 L133.085338,1.70771126 L133.085338,2.9022679 L134.363749,2.9022679 L134.363749,5.38391727 L133.085338,5.38391727 L133.085338,7.86766972 L134.363749,7.86766972 L134.363749,10.3514222 L133.085338,10.3514222 L133.085338,12.8351746 L134.363749,12.8351746 L134.363749,15.316824 L133.085338,15.316824 L133.085338,17.8005765 L134.363749,17.8005765 L134.363749,20.2822258 L133.085338,20.2822258 L133.085338,22.7659783 L134.363749,22.7659783 L134.363749,25.2497307 L133.085338,25.2497307 L133.085338,27.5063492 L239.336899,27.5063492 L239.336899,27.0289471 L240.613169,27.0289471 L240.613169,24.4968236 L239.336899,24.4968236 L239.336899,21.9625969 L240.613169,21.9625969 L240.613169,19.4304733 L239.336899,19.4304733 L239.336899,16.8983497 L240.613169,16.8983497 L240.613169,14.364123 L239.336899,14.364123 L239.336899,11.8298963 L240.613169,11.8298963 L240.613169,9.29777275 L239.336899,9.29777275 L239.336899,6.76564916 L240.613169,6.76564916 L240.613169,4.23142248 L239.336899,4.23142248 L239.336899,1.70771126 L133.085338,1.70771126 L133.085338,2.9022679 L131.809069,2.9022679 L131.809069,5.38391727 L133.085338,5.38391727 L133.085338,7.86766972 L131.809069,7.86766972 L131.809069,10.3514222 L133.085338,10.3514222 L133.085338,12.8351746 L131.809069,12.8351746 L131.809069,15.316824 L133.085338,15.316824 L133.085338,17.8005765 L131.809069,17.8005765 L131.809069,20.2822258 L133.085338,20.2822258 L133.085338,22.7659783 L131.809069,22.7659783 L131.809069,25.2497307 L133.085338,25.2497307 L133.085338,27.5063492 L67.415286,27.5063492 M269.972716,27.5063492 L298.051712,27.5063492 L298.051712,1.70771126 L241.893721,1.70771126 L241.893721,4.23142248 L240.613169,4.23142248 L240.613169,6.76564916 L241.893721,6.76564916 L241.893721,9.29777275 L240.613169,9.29777275 L240.613169,11.8298963 L241.893721,11.8298963 L241.893721,14.364123 L240.613169,14.364123 L240.613169,16.8983497 L241.893721,16.8983497 L241.893721,19.4304733 L240.613169,19.4304733 L240.613169,21.9625969 L241.893721,21.9625969 L241.893721,24.4968236 L240.613169,24.4968236 L240.613169,27.0289471 L241.893721,27.0289471 L241.893721,27.5063492 L269.972716,27.5063492" id="path-1"></path>
        <path id="path-3" d="M1.6788509,27.5063492 L1.74523404,27.5063492 L1.74523404,1.70771126 L1.6788509,1.70771126 L1.6788509,27.5063492 Z"></path>
        <path d="M0.7773251,20.2906382 L0.7773251,22.8227618 L0.7773251,20.2906382 M0.7773251,15.2242879 L0.7773251,17.7564115 L0.7773251,15.2242879 M0.7773251,10.1579377 L0.7773251,12.6921643 L0.7773251,10.1579377 M0.7773251,5.09158738 L0.7773251,7.62371097 L0.7773251,5.09158738 M0.7773251,0.0252371122 L0.7773251,2.55946379 L0.7773251,0.0252371122" id="path-5"></path>
        <path d="M0.319067328,25.2497307 L0.319067328,27.5063492 L0.319067328,25.2497307 M0.319067328,20.2822258 L0.319067328,22.7659783 L0.319067328,20.2822258 M0.319067328,15.316824 L0.319067328,17.8005765 L0.319067328,15.316824 M0.319067328,10.3514222 L0.319067328,12.8351746 L0.319067328,10.3514222 M0.319067328,5.38391727 L0.319067328,7.86766972 L0.319067328,5.38391727 M0.319067328,1.70560817 L0.319067328,2.9022679 L0.319067328,1.70560817" id="path-7"></path>
    </defs>
    <g id="Page-1" stroke="none" stroke-width="1" fill="none" fill-rule="evenodd" sketch:type="MSPage">
        <g id="graph--blood-sugar" sketch:type="MSLayerGroup" transform="translate(-2.717217, -4.819580)">
            <path d="M337.15352,121.771169 L38.1488889,121.771169 L38.1488889,23.6787205 L35.5942089,23.6787205 L35.5942089,124.282262 L337.15352,124.282262 L337.15352,121.771169" id="Fill-1" fill="#BBBDBF" sketch:type="MSShapeGroup"></path>
            <path d="M277.016823,122.63554 L277.016823,21.3337722 L277.016823,122.63554" id="Fill-2" fill="#FFFFFF" sketch:type="MSShapeGroup"></path>
            <path d="M275.740554,121.379994 L278.297376,121.379994 L278.297376,122.63554 L275.740554,122.63554 L275.740554,121.379994 Z" id="Fill-3" fill="#BBBDBF" sketch:type="MSShapeGroup"></path>
            <path d="M275.740554,27.6535657 L278.297376,27.6535657 L278.297376,25.119339 L275.740554,25.119339 L275.740554,27.6535657 Z M275.740554,32.722019 L278.297376,32.722019 L278.297376,30.1877924 L275.740554,30.1877924 L275.740554,32.722019 Z M275.740554,37.7862662 L278.297376,37.7862662 L278.297376,35.2541426 L275.740554,35.2541426 L275.740554,37.7862662 Z M275.740554,42.8526165 L278.297376,42.8526165 L278.297376,40.3204929 L275.740554,40.3204929 L275.740554,42.8526165 Z M275.740554,47.9189668 L278.297376,47.9189668 L278.297376,45.3847401 L275.740554,45.3847401 L275.740554,47.9189668 Z M275.740554,52.985317 L278.297376,52.985317 L278.297376,50.4531934 L275.740554,50.4531934 L275.740554,52.985317 Z M275.740554,58.0516673 L278.297376,58.0516673 L278.297376,55.5174406 L275.740554,55.5174406 L275.740554,58.0516673 Z M275.740554,63.1180176 L278.297376,63.1180176 L278.297376,60.5837909 L275.740554,60.5837909 L275.740554,63.1180176 Z M275.740554,68.1843678 L278.297376,68.1843678 L278.297376,65.6501412 L275.740554,65.6501412 L275.740554,68.1843678 Z M275.740554,73.2507181 L278.297376,73.2507181 L278.297376,70.7164914 L275.740554,70.7164914 L275.740554,73.2507181 Z M275.740554,78.3170684 L278.297376,78.3170684 L278.297376,75.7849448 L275.740554,75.7849448 L275.740554,78.3170684 Z M275.740554,83.3834187 L278.297376,83.3834187 L278.297376,80.849192 L275.740554,80.849192 L275.740554,83.3834187 Z M275.740554,88.4497689 L278.297376,88.4497689 L278.297376,85.9155422 L275.740554,85.9155422 L275.740554,88.4497689 Z M275.740554,93.5161192 L278.297376,93.5161192 L278.297376,90.9839956 L275.740554,90.9839956 L275.740554,93.5161192 Z M275.740554,98.5824695 L278.297376,98.5824695 L278.297376,96.0482428 L275.740554,96.0482428 L275.740554,98.5824695 Z M275.740554,103.64882 L278.297376,103.64882 L278.297376,101.116696 L275.740554,101.116696 L275.740554,103.64882 Z M275.740554,108.71517 L278.297376,108.71517 L278.297376,106.180943 L275.740554,106.180943 L275.740554,108.71517 Z M275.740554,113.78152 L278.297376,113.78152 L278.297376,111.249397 L275.740554,111.249397 L275.740554,113.78152 Z M275.740554,118.847871 L278.297376,118.847871 L278.297376,116.313644 L275.740554,116.313644 L275.740554,118.847871 Z" id="Fill-4" fill="#BBBDBF" sketch:type="MSShapeGroup"></path>
            <path d="M275.740554,21.3337722 L278.297376,21.3337722 L278.297376,22.5893185 L275.740554,22.5893185 L275.740554,21.3337722 Z" id="Fill-5" fill="#BBBDBF" sketch:type="MSShapeGroup"></path>
            <path d="M169.488993,122.63554 L169.488993,23.2896484 L169.488993,122.63554" id="Fill-6" fill="#FFFFFF" sketch:type="MSShapeGroup"></path>
            <path d="M168.212723,121.379994 L170.769545,121.379994 L170.769545,122.63554 L168.212723,122.63554 L168.212723,121.379994 Z" id="Fill-7" fill="#BBBDBF" sketch:type="MSShapeGroup"></path>
            <path d="M168.212723,29.5084934 L170.767403,29.5084934 L170.767403,27.0268441 L168.212723,27.0268441 L168.212723,29.5084934 Z M168.212723,34.4759983 L170.767403,34.4759983 L170.767403,31.9922459 L168.212723,31.9922459 L168.212723,34.4759983 Z M168.212723,39.4414002 L170.767403,39.4414002 L170.767403,36.9597508 L168.212723,36.9597508 L168.212723,39.4414002 Z M168.212723,44.4089051 L170.767403,44.4089051 L170.767403,41.9251526 L168.212723,41.9251526 L168.212723,44.4089051 Z M168.212723,49.3743069 L170.767403,49.3743069 L170.767403,46.8905544 L168.212723,46.8905544 L168.212723,49.3743069 Z M168.212723,54.3397087 L170.767403,54.3397087 L170.767403,51.8580594 L168.212723,51.8580594 L168.212723,54.3397087 Z M168.212723,59.3051105 L170.767403,59.3051105 L170.767403,56.8213581 L168.212723,56.8213581 L168.212723,59.3051105 Z M168.212723,64.2705124 L170.767403,64.2705124 L170.767403,61.788863 L168.212723,61.788863 L168.212723,64.2705124 Z M168.212723,69.2380173 L170.767403,69.2380173 L170.767403,66.7563679 L168.212723,66.7563679 L168.212723,69.2380173 Z M168.212723,74.2034191 L170.767403,74.2034191 L170.767403,71.7196666 L168.212723,71.7196666 L168.212723,74.2034191 Z M168.212723,79.1688209 L170.767403,79.1688209 L170.767403,76.6850685 L168.212723,76.6850685 L168.212723,79.1688209 Z M168.212723,84.1363258 L170.767403,84.1363258 L170.767403,81.6525734 L168.212723,81.6525734 L168.212723,84.1363258 Z M168.212723,89.1017277 L170.767403,89.1017277 L170.767403,86.6179752 L168.212723,86.6179752 L168.212723,89.1017277 Z M168.212723,94.0671295 L170.767403,94.0671295 L170.767403,91.5854801 L168.212723,91.5854801 L168.212723,94.0671295 Z M168.212723,99.0325313 L170.767403,99.0325313 L170.767403,96.5508819 L168.212723,96.5508819 L168.212723,99.0325313 Z M168.212723,103.997933 L170.767403,103.997933 L170.767403,101.516284 L168.212723,101.516284 L168.212723,103.997933 Z M168.212723,108.965438 L170.767403,108.965438 L170.767403,106.481686 L168.212723,106.481686 L168.212723,108.965438 Z M168.212723,113.93084 L170.767403,113.93084 L170.767403,111.447087 L168.212723,111.447087 L168.212723,113.93084 Z M168.212723,118.898345 L170.767403,118.898345 L170.767403,116.414592 L168.212723,116.414592 L168.212723,118.898345 Z" id="Fill-8" fill="#BBBDBF" sketch:type="MSShapeGroup"></path>
            <path d="M168.212723,23.2896484 L170.769545,23.2896484 L170.769545,24.5430916 L168.212723,24.5430916 L168.212723,23.2896484 Z" id="Fill-9" fill="#BBBDBF" sketch:type="MSShapeGroup"></path>
            <text id="170" sketch:type="MSTextLayer" font-family="Futura" font-size="16.80063" font-weight="420" letter-spacing="-0.0919" fill="#231F1F">
                <tspan x="39.3711951" y="20.143265">1</tspan>
                <tspan x="48.0897817" y="20.143265" letter-spacing="0.64332757">7</tspan>
                <tspan x="59.1022481" y="20.143265">0</tspan>
            </text>
            <text id="65" sketch:type="MSTextLayer" font-family="Futura" font-size="16.80063" font-weight="420" fill="#231F1F">
                <tspan x="134.769479" y="96.1283292">65</tspan>
            </text>
            <text id="125" sketch:type="MSTextLayer" font-family="Futura" font-size="16.80063" font-weight="420" letter-spacing="-0.079" fill="#231F1F">
                <tspan x="244.56188" y="39.5664748">1</tspan>
                <tspan x="253.523063" y="39.5664748" letter-spacing="0.5530237">2</tspan>
                <tspan x="264.445225" y="39.5664748">5</tspan>
            </text>
            <text id="220" sketch:type="MSTextLayer" font-family="Futura" font-size="16.80063" font-weight="420" fill="#231F1F">
                <tspan x="106.479781" y="18.3984739">220</tspan>
            </text>
            <path d="M35.5470982,23.30437 L37.9540222,23.30437 L37.9540222,121.674427 L35.5470982,121.674427 L35.5470982,23.30437 Z" id="Fill-10" fill="#BBBDBF" sketch:type="MSShapeGroup"></path>
            <text id="1/24/14" sketch:type="MSTextLayer" font-family="Roboto" font-size="17.4984" font-weight="normal" fill="#929497">
                <tspan x="233.942734" y="142.368427">1/24/14</tspan>
            </text>
            <text id="Week-1Week-6" sketch:type="MSTextLayer" font-family="Roboto" font-size="17.4984" font-weight="normal" letter-spacing="-0.125532" fill="#929497">
                <tspan x="37.9725696" y="142.368427">W</tspan>
                <tspan x="53.0385196" y="142.368427">eek </tspan>
                <tspan x="84.8654435" y="142.368427" letter-spacing="19.1109917">1</tspan>
                <tspan x="113.827829" y="142.368427">W</tspan>
                <tspan x="128.893779" y="142.368427">eek 6</tspan>
            </text>
            <text id="70" sketch:type="MSTextLayer" font-family="Futura" font-size="16.15656" font-weight="420" fill="#119BCE">
                <tspan x="5.65982132" y="88.5126562">70</tspan>
            </text>
            <text id="110" sketch:type="MSTextLayer" font-family="Futura" font-size="16.15656" font-weight="420" letter-spacing="-0.146" fill="#119BCE">
                <tspan x="0.608583453" y="68.2419089">1</tspan>
                <tspan x="8.07541568" y="68.2419089" letter-spacing="0.51641896">1</tspan>
                <tspan x="17.5931212" y="68.2419089">0</tspan>
            </text>
            <g id="Group-23" transform="translate(36.403655, 58.886595)">
                <mask id="mask-2" sketch:name="Clip 22" fill="white">
                    <use xlink:href="#path-1"></use>
                </mask>
                <g id="Clip-22"></g>
                <path d="M133.085338,1.70560817 L1.74523404,1.70560817 L1.74523404,27.5063492 L133.085338,27.5063492 L133.085338,25.2497307 L131.809069,25.2497307 L131.809069,22.7659783 L133.085338,22.7659783 L133.085338,20.2822258 L131.809069,20.2822258 L131.809069,17.8005765 L133.085338,17.8005765 L133.085338,15.316824 L131.809069,15.316824 L131.809069,12.8351746 L133.085338,12.8351746 L133.085338,10.3514222 L131.809069,10.3514222 L131.809069,7.86766972 L133.085338,7.86766972 L133.085338,5.38391727 L131.809069,5.38391727 L131.809069,2.9022679 L133.085338,2.9022679 L133.085338,1.70560817 M239.336899,1.70560817 L133.085338,1.70560817 L133.085338,2.9022679 L134.363749,2.9022679 L134.363749,5.38391727 L133.085338,5.38391727 L133.085338,7.86766972 L134.363749,7.86766972 L134.363749,10.3514222 L133.085338,10.3514222 L133.085338,12.8351746 L134.363749,12.8351746 L134.363749,15.316824 L133.085338,15.316824 L133.085338,17.8005765 L134.363749,17.8005765 L134.363749,20.2822258 L133.085338,20.2822258 L133.085338,22.7659783 L134.363749,22.7659783 L134.363749,25.2497307 L133.085338,25.2497307 L133.085338,27.5063492 L239.336899,27.5063492 L239.336899,27.0289471 L240.613169,27.0289471 L240.613169,24.4968236 L239.336899,24.4968236 L239.336899,21.9625969 L240.613169,21.9625969 L240.613169,19.4304733 L239.336899,19.4304733 L239.336899,16.8983497 L240.613169,16.8983497 L240.613169,14.364123 L239.336899,14.364123 L239.336899,11.8298963 L240.613169,11.8298963 L240.613169,9.29777275 L239.336899,9.29777275 L239.336899,6.76564916 L240.613169,6.76564916 L240.613169,4.23142248 L239.336899,4.23142248 L239.336899,1.70560817 M298.053853,1.70560817 L241.893721,1.70560817 L241.893721,4.23142248 L240.613169,4.23142248 L240.613169,6.76564916 L241.893721,6.76564916 L241.893721,9.29777275 L240.613169,9.29777275 L240.613169,11.8298963 L241.893721,11.8298963 L241.893721,14.364123 L240.613169,14.364123 L240.613169,16.8983497 L241.893721,16.8983497 L241.893721,19.4304733 L240.613169,19.4304733 L240.613169,21.9625969 L241.893721,21.9625969 L241.893721,24.4968236 L240.613169,24.4968236 L240.613169,27.0289471 L241.893721,27.0289471 L241.893721,27.5063492 L298.053853,27.5063492 L298.053853,1.70560817" id="Fill-21" sketch:type="MSShapeGroup" mask="url(#mask-2)"></path>
            </g>
            <g id="Group-26" transform="translate(36.403655, 58.886595)">
                <mask id="mask-4" sketch:name="Clip 25" fill="white">
                    <use xlink:href="#path-3"></use>
                </mask>
                <g id="Clip-25"></g>
                <path d="M1.6788509,27.5063492 L1.74523404,27.5063492 L1.74523404,1.70771126 L1.6788509,1.70771126 L1.6788509,27.5063492 Z" id="Fill-24" sketch:type="MSShapeGroup" mask="url(#mask-4)"></path>
            </g>
            <g id="Group-29" transform="translate(276.239498, 63.092780)">
                <mask id="mask-6" sketch:name="Clip 28" fill="white">
                    <use xlink:href="#path-5"></use>
                </mask>
                <g id="Clip-28"></g>
                <path d="M0.7773251,20.2906382 L0.7773251,22.8227618 L0.7773251,20.2906382 M0.7773251,15.2242879 L0.7773251,17.7564115 L0.7773251,15.2242879 M0.7773251,10.1579377 L0.7773251,12.6921643 L0.7773251,10.1579377 M0.7773251,5.09158738 L0.7773251,7.62371097 L0.7773251,5.09158738 M0.7773251,0.0252371122 L0.7773251,2.55946379 L0.7773251,0.0252371122" id="Fill-27" sketch:type="MSShapeGroup" mask="url(#mask-6)"></path>
            </g>
            <path d="M275.740554,86.3929443 L278.297376,86.3929443 L278.297376,85.9155422 L275.740554,85.9155422 L275.740554,86.3929443 Z M275.740554,83.3834187 L278.297376,83.3834187 L278.297376,80.849192 L275.740554,80.849192 L275.740554,83.3834187 Z M275.740554,78.3170684 L278.297376,78.3170684 L278.297376,75.7849448 L275.740554,75.7849448 L275.740554,78.3170684 Z M275.740554,73.2507181 L278.297376,73.2507181 L278.297376,70.7164914 L275.740554,70.7164914 L275.740554,73.2507181 Z M275.740554,68.1843678 L278.297376,68.1843678 L278.297376,65.6501412 L275.740554,65.6501412 L275.740554,68.1843678 Z M275.740554,63.1180176 L278.297376,63.1180176 L278.297376,60.5922033 L275.740554,60.5922033 L275.740554,63.1180176 Z" id="Fill-30" sketch:type="MSShapeGroup"></path>
            <g id="Group-34" transform="translate(169.169925, 58.886595)">
                <mask id="mask-8" sketch:name="Clip 33" fill="white">
                    <use xlink:href="#path-7"></use>
                </mask>
                <g id="Clip-33"></g>
                <path d="M0.319067328,25.2497307 L0.319067328,27.5063492 L0.319067328,25.2497307 M0.319067328,20.2822258 L0.319067328,22.7659783 L0.319067328,20.2822258 M0.319067328,15.316824 L0.319067328,17.8005765 L0.319067328,15.316824 M0.319067328,10.3514222 L0.319067328,12.8351746 L0.319067328,10.3514222 M0.319067328,5.38391727 L0.319067328,7.86766972 L0.319067328,5.38391727 M0.319067328,1.70560817 L0.319067328,2.9022679 L0.319067328,1.70560817" id="Fill-32" sketch:type="MSShapeGroup" mask="url(#mask-8)"></path>
            </g>
            <path d="M168.212723,84.1363258 L170.767403,84.1363258 L170.767403,81.6525734 L168.212723,81.6525734 L168.212723,84.1363258 Z M168.212723,79.1688209 L170.767403,79.1688209 L170.767403,76.6850685 L168.212723,76.6850685 L168.212723,79.1688209 Z M168.212723,74.2034191 L170.767403,74.2034191 L170.767403,71.7196666 L168.212723,71.7196666 L168.212723,74.2034191 Z M168.212723,69.2380173 L170.767403,69.2380173 L170.767403,66.7563679 L168.212723,66.7563679 L168.212723,69.2380173 Z M168.212723,64.2705124 L170.767403,64.2705124 L170.767403,61.788863 L168.212723,61.788863 L168.212723,64.2705124 Z" id="Fill-35" sketch:type="MSShapeGroup"></path>
            <path d="M37.7334589,31.7125346 L95.6452496,21.3905557 L127.975978,43.182802 L162.642964,93.465645 L163.589459,92.399377 C163.589459,92.3972739 164.246866,91.6548822 165.403218,90.3530678 C169.446165,85.795666 179.570664,74.3990067 188.802202,64.1464299 C193.416901,59.021193 197.811036,54.1798737 201.104496,50.625647 C202.751226,48.8485337 204.123858,47.3931936 205.104615,46.3921215 C205.594994,45.8915854 205.98901,45.5046164 206.256684,45.2585545 L206.537206,45.0124927 L206.554337,44.9998741 L206.252401,44.5792556 L206.490096,45.0377298 L206.554337,44.9998741 L206.252401,44.5792556 L206.490096,45.0377298 L206.033979,44.158637 L206.033979,45.1407813 C206.348764,45.1281628 206.427995,45.0587607 206.490096,45.0377298 L206.033979,44.158637 L206.033979,45.1407813 L206.033979,44.0850288 L205.866951,45.1281628 L206.033979,45.1407813 L206.033979,44.0850288 L205.866951,45.1281628 L206.036121,44.0639979 L205.410834,44.9472968 L205.866951,45.1281628 L206.036121,44.0639979 L205.410834,44.9472968 L205.51148,45.0166989 L205.622832,45.0608638 L205.826264,45.1239566 C205.971879,45.155503 206.091797,45.1723277 206.295229,45.1996679 C209.271763,45.6034617 227.079575,47.401606 244.210706,49.1072141 C261.32899,50.8107192 277.721341,52.4132758 277.721341,52.4132758 L277.939763,50.2491935 C277.929056,50.2470904 273.504941,49.8138533 266.840931,49.1576883 C256.842775,48.173441 241.825196,46.6886575 229.231673,45.4183896 C222.935982,44.7832556 217.244164,44.202802 213.092006,43.7653587 C211.014856,43.5466371 209.323157,43.363668 208.134684,43.2290701 C207.541519,43.1617711 207.074696,43.1049876 206.751345,43.0629258 L206.38945,43.0124515 L206.320926,43.0019361 L206.162463,43.7695649 L206.464399,43.046101 L206.320926,43.0019361 L206.162463,43.7695649 L206.464399,43.046101 L206.042545,44.0555855 L206.676397,43.159668 L206.209573,42.976699 L206.033979,42.9640804 C205.77273,42.9682866 205.654953,43.0271732 205.560732,43.0608227 C205.243806,43.2122453 205.17314,43.3026783 204.997546,43.4393793 C204.410805,43.9441216 203.380795,44.9956679 201.916084,46.539338 C191.742333,57.2840385 161.921315,90.9629647 161.914891,90.969274 L162.752175,91.6843255 L163.670832,91.0744286 L129.575597,41.6181011 L96.1484766,19.0876692 L37.3373015,29.5694831 L37.7334589,31.7125346" id="Fill-37" fill="#009345" sketch:type="MSShapeGroup"></path>
        </g>
    </g>
</svg>