<?xml version="1.0" encoding="UTF-8" standalone="no"?>
<svg width="71px" height="66px" viewBox="0 0 71 66" version="1.1" xmlns="http://www.w3.org/2000/svg" xmlns:xlink="http://www.w3.org/1999/xlink" xmlns:sketch="http://www.bohemiancoding.com/sketch/ns">
    <!-- Generator: Sketch 3.2.2 (9983) - http://www.bohemiancoding.com/sketch -->
    <title>icon--mortarpestle--clear</title>
    <desc>Created with Sketch.</desc>
    <defs></defs>
    <g id="Page-1" stroke="none" stroke-width="1" fill="none" fill-rule="evenodd" sketch:type="MSPage">
        <path d="M70.5034929,8.92798043 C70.0530503,6.13166465 68.5480831,3.68155938 66.2667716,2.03155938 C63.9784765,0.369980435 61.1384765,-0.31317746 58.3648208,0.133769908 C55.5504274,0.583033066 53.0875421,2.07903307 51.4289356,4.34850675 C49.32687,7.22471728 48.8380175,10.9589278 50.1206733,14.3399804 L50.213788,14.5842962 L39.2157716,27.9695594 L1.82205031,27.9695594 C1.206329,27.9695594 0.632509327,28.2914541 0.284492934,28.8298752 C-0.0530480501,29.3613489 -0.0926218205,30.0097699 0.178574901,30.5644015 L16.2152634,64.1537699 C16.4980995,64.7952436 17.1254601,65.1854541 17.855247,65.1854541 L49.9006897,65.1854541 C50.6234929,65.1854541 51.2601651,64.790612 51.5651159,64.1537699 L67.5983126,30.5910331 C67.8660175,30.0190331 67.8241159,29.3578752 67.4877388,28.8264015 C67.1408864,28.282191 66.5728864,27.9695594 65.9292306,27.9695594 L54.6856241,27.9695594 L59.1970339,21.0789278 L59.4589192,21.0928225 C63.0484929,21.2769278 66.5007224,19.6373489 68.6016241,16.7692436 C70.2590667,14.5032436 70.9341487,11.7185068 70.5034929,8.92798043 L70.5034929,8.92798043 Z M63.0310339,31.6180857 L48.7600339,61.5600857 L19.0203454,61.5600857 L4.7190831,31.6180857 L63.0310339,31.6180857 L63.0310339,31.6180857 Z M65.6277716,14.6364015 C64.0634438,16.7785068 61.2641815,17.8622962 58.645329,17.3204015 C57.9446405,17.1895594 57.1648044,17.502191 56.7527716,18.1262962 L50.3255257,27.9695594 L43.9378536,27.9695594 L53.7893946,15.9922962 C54.260788,15.4168225 54.3294601,14.6120857 53.9651487,13.9416646 C52.6405913,11.5714541 52.8105257,8.6500857 54.3981323,6.50334886 C55.4689519,5.01545412 57.0728536,4.03471728 58.9130339,3.74871728 C60.7636897,3.45924359 62.6155093,3.90387517 64.0995257,4.98419096 C65.5940175,6.04829622 66.578706,7.64387517 66.8708536,9.47566465 C67.1595093,11.3213489 66.7183782,13.1542962 65.6277716,14.6364015 L65.6277716,14.6364015 Z" id="icon--mortarpestle--clear" fill="#7ECAEE" sketch:type="MSShapeGroup"></path>
    </g>
</svg>