<?xml version="1.0" encoding="UTF-8" standalone="no"?>
<svg width="72px" height="55px" viewBox="0 0 72 55" version="1.1" xmlns="http://www.w3.org/2000/svg" xmlns:xlink="http://www.w3.org/1999/xlink" xmlns:sketch="http://www.bohemiancoding.com/sketch/ns">
    <!-- Generator: Sketch 3.2.2 (9983) - http://www.bohemiancoding.com/sketch -->
    <title>icon--briefcase--clear</title>
    <desc>Created with Sketch.</desc>
    <defs></defs>
    <g id="Page-1" stroke="none" stroke-width="1" fill="none" fill-rule="evenodd" sketch:type="MSPage">
        <g id="icon--briefcase--clear" sketch:type="MSLayerGroup" fill="#7ECAEE">
            <path d="M67.6113231,7.75435294 L47.3372308,7.75435294 L47.3372308,7.37223529 C47.3372308,7.33929412 47.3394462,7.30854902 47.3427692,7.27890196 C47.3449846,5.43529412 47.3449846,2.68470588 46.4422154,1.29019608 C46.3657846,1.15733333 46.296,1.05631373 46.2251077,0.973960784 L46.1553231,0.908078431 C45.9072,0.656627451 45.6136615,0.496313725 45.2813538,0.432627451 C45.1595077,0.416156863 45.0465231,0.399686275 44.9224615,0.399686275 L26.2423385,0.399686275 C26.1182769,0.399686275 26.0052923,0.416156863 25.8923077,0.431529412 C25.5500308,0.497411765 25.2598154,0.653333333 24.9984,0.911372549 C24.8898462,1.02007843 24.8012308,1.15403922 24.7214769,1.2825098 C23.8220308,2.68360784 23.8220308,5.43529412 23.8220308,7.25584314 C23.8264615,7.30964706 23.8286769,7.34039216 23.8286769,7.37223529 L23.8286769,7.75435294 L3.80049231,7.75435294 C1.89858462,7.75435294 0.352246154,9.28721569 0.352246154,11.172549 L0.352246154,51.576 C0.352246154,53.4569412 1.89858462,54.9876078 3.80049231,54.9876078 L67.6113231,54.9876078 C69.5110154,54.9876078 71.0573538,53.4569412 71.0573538,51.576 L71.0573538,11.172549 C71.0573538,9.28721569 69.5110154,7.75435294 67.6113231,7.75435294 L67.6113231,7.75435294 Z M27.3300923,7.29427451 L27.3378462,7.25803922 C27.3433846,6.84956863 27.4475077,5.38698039 27.5771077,4.2307451 L27.6147692,3.89035294 L43.5489231,3.89035294 L43.5876923,4.22964706 C43.7139692,5.33756863 43.8203077,6.82541176 43.8280615,7.2492549 C43.8324923,7.30964706 43.8347077,7.34039216 43.8347077,7.37223529 L43.8347077,7.75435294 L27.2337231,7.75435294 L27.3300923,7.29427451 L27.3300923,7.29427451 Z M13.9790769,11.6293333 L13.9790769,51.5035294 L3.86695385,51.5035294 L3.86695385,11.2472157 L13.9790769,11.2472157 L13.9790769,11.6293333 L13.9790769,11.6293333 Z M53.9091692,11.7182745 L53.9091692,51.4123922 L17.5004308,51.4123922 L17.5004308,11.3361569 L53.9091692,11.3361569 L53.9091692,11.7182745 L53.9091692,11.7182745 Z M67.5426462,11.6293333 L67.5426462,51.5035294 L57.4305231,51.5035294 L57.4305231,11.2472157 L67.5426462,11.2472157 L67.5426462,11.6293333 L67.5426462,11.6293333 Z" id="Fill-1" sketch:type="MSShapeGroup"></path>
            <path d="M45.2580923,27.9132549 L37.6980923,27.9132549 L37.6980923,20.4191373 C37.6980923,19.8152157 37.1996308,19.321098 36.5904,19.321098 L34.8192,19.321098 C34.2099692,19.321098 33.7115077,19.8152157 33.7115077,20.4191373 L33.7115077,27.9132549 L26.1504,27.9132549 C25.5422769,27.9132549 25.0427077,28.4073725 25.0427077,29.0112941 L25.0427077,30.7670588 C25.0427077,31.3709804 25.5422769,31.8661961 26.1504,31.8661961 L33.7115077,31.8661961 L33.7115077,39.3603137 C33.7115077,39.9642353 34.2099692,40.4583529 34.8192,40.4583529 L36.5904,40.4583529 C37.1996308,40.4583529 37.6980923,39.9642353 37.6980923,39.3603137 L37.6980923,31.8661961 L45.2580923,31.8661961 C45.8673231,31.8661961 46.3657846,31.3709804 46.3657846,30.7670588 L46.3657846,29.0112941 C46.3657846,28.4073725 45.8673231,27.9132549 45.2580923,27.9132549" id="Fill-2" sketch:type="MSShapeGroup"></path>
        </g>
    </g>
</svg>