<?xml version="1.0" encoding="UTF-8" standalone="no"?>
<svg width="22px" height="22px" viewBox="0 0 22 22" version="1.1" xmlns="http://www.w3.org/2000/svg" xmlns:xlink="http://www.w3.org/1999/xlink" xmlns:sketch="http://www.bohemiancoding.com/sketch/ns">
    <!-- Generator: Sketch 3.2.2 (9983) - http://www.bohemiancoding.com/sketch -->
    <title>medication--good</title>
    <desc>Created with Sketch.</desc>
    <defs></defs>
    <g id="Page-1" stroke="none" stroke-width="1" fill="none" fill-rule="evenodd" sketch:type="MSPage">
        <g id="medication--good" sketch:type="MSLayerGroup">
            <path d="M22.016,11.047 C22.016,17.078 17.127,21.967 11.096,21.967 C5.066,21.967 0.177,17.078 0.177,11.047 C0.177,5.016 5.066,0.127 11.096,0.127 C17.127,0.127 22.016,5.016 22.016,11.047" id="Fill-3" fill="#009345" sketch:type="MSShapeGroup"></path>
            <path d="M4.291,10.297 C4.369,14.019 7.405,17.014 11.146,17.014 C14.886,17.014 17.922,14.019 18.001,10.297 L4.291,10.297" id="Fill-6" fill="#FFFFFF" sketch:type="MSShapeGroup"></path>
            <path d="M9.074,8.494 C9.139,7.887 9.176,7.986 9.176,7.803 C9.176,7.043 8.559,6.338 7.798,6.338 C7.037,6.338 6.42,7.086 6.42,7.847 C6.42,8.03 6.458,7.887 6.522,8.494 L9.074,8.494" id="Fill-8" fill="#FFFFFF" sketch:type="MSShapeGroup"></path>
            <path d="M15.935,8.494 C16,7.887 16.037,7.986 16.037,7.803 C16.037,7.043 15.42,6.338 14.659,6.338 C13.898,6.338 13.281,7.086 13.281,7.847 C13.281,8.03 13.319,7.887 13.383,8.494 L15.935,8.494" id="Fill-9" fill="#FFFFFF" sketch:type="MSShapeGroup"></path>
        </g>
    </g>
</svg>