<?xml version="1.0" encoding="UTF-8" standalone="no"?>
<svg width="23px" height="23px" viewBox="0 0 23 23" version="1.1" xmlns="http://www.w3.org/2000/svg" xmlns:xlink="http://www.w3.org/1999/xlink" xmlns:sketch="http://www.bohemiancoding.com/sketch/ns">
    <!-- Generator: Sketch 3.2.2 (9983) - http://www.bohemiancoding.com/sketch -->
    <title>medication--bad</title>
    <desc>Created with Sketch.</desc>
    <defs></defs>
    <g id="Page-1" stroke="none" stroke-width="1" fill="none" fill-rule="evenodd" sketch:type="MSPage">
        <g id="medication--bad" sketch:type="MSLayerGroup">
            <path d="M22.628,11.175 C22.628,17.206 17.739,22.094 11.708,22.094 C5.677,22.094 0.788,17.206 0.788,11.175 C0.788,5.144 5.677,0.255 11.708,0.255 C17.739,0.255 22.628,5.144 22.628,11.175" id="Fill-1" fill="#D91C5C" sketch:type="MSShapeGroup"></path>
            <path d="M17.089,15.772 C17.026,12.809 14.609,10.424 11.631,10.424 C8.652,10.424 6.234,12.809 6.172,15.772 L17.089,15.772" id="Fill-7" fill="#FFFFFF" sketch:type="MSShapeGroup"></path>
            <path d="M13.967,7.103 C14.935,7.373 15.795,7.794 16.488,8.326" id="Fill-10" fill="#FFFFFF" sketch:type="MSShapeGroup"></path>
            <path d="M13.967,7.103 C14.935,7.373 15.795,7.794 16.488,8.326" id="Stroke-11" stroke="#FFFFFF" stroke-width="1.559" stroke-linecap="round" sketch:type="MSShapeGroup"></path>
            <path d="M9.289,7.044 C8.279,7.297 7.377,7.713 6.647,8.247" id="Fill-12" fill="#FFFFFF" sketch:type="MSShapeGroup"></path>
            <path d="M9.289,7.044 C8.279,7.297 7.377,7.713 6.647,8.247" id="Stroke-13" stroke="#FFFFFF" stroke-width="1.559" stroke-linecap="round" sketch:type="MSShapeGroup"></path>
        </g>
    </g>
</svg>