<svg id="Layer_1" data-name="Layer 1" xmlns="http://www.w3.org/2000/svg" viewBox="0 0 800 400"><defs><style>.cls-1{fill:#034483;}.cls-2{fill:#2fafd1;}.cls-3{fill:#d6fae4;}.cls-4{fill:#26acbb;}.cls-5{fill:#87e9db;}.cls-6{fill:#0b94a8;}.cls-7{fill:#71e4c4;}.cls-8{fill:#0a9195;}</style></defs><title>LogoHorizontal_Color</title><path class="cls-1" d="M277,142.25a11.73,11.73,0,0,1,0,15.56,10.16,10.16,0,0,1-7.59,3,9.89,9.89,0,0,1-7.47-3.08,11.64,11.64,0,0,1,0-15.49,10,10,0,0,1,7.47-3A10.16,10.16,0,0,1,277,142.25Zm-17.13,27h19.33v67.51H259.9Z"/><path class="cls-1" d="M323.47,171.86a26.91,26.91,0,0,1,13.18-3.39v18.2a27.4,27.4,0,0,0-3-.13q-8.91,0-14.11,4.83t-5.21,12.87v32.5H295V169.23h19.32V181.4A24.56,24.56,0,0,1,323.47,171.86Z"/><path class="cls-1" d="M376.21,185a15.42,15.42,0,0,0-11.86,5q-4.58,5-4.58,13.12t4.52,13.24a14.74,14.74,0,0,0,11.54,5.08q10.55,0,15.69-7.91l13.3,9a28.63,28.63,0,0,1-12,11,39.58,39.58,0,0,1-18,3.89,36.68,36.68,0,0,1-17.95-4.27,30.3,30.3,0,0,1-12.11-12,36.37,36.37,0,0,1-4.33-18,37,37,0,0,1,4.33-18.13A30.48,30.48,0,0,1,357,172.93a36.83,36.83,0,0,1,18.13-4.33,38.57,38.57,0,0,1,17.19,3.7,30.2,30.2,0,0,1,12.05,10.48l-13.05,9.41A18.43,18.43,0,0,0,376.21,185Z"/><path class="cls-1" d="M414.37,143.63h19.32v93.11H414.37Z"/><path class="cls-1" d="M504.8,178q8.47,9.42,8.47,26.23c0,2,0,3.55-.12,4.64H464.71a17.13,17.13,0,0,0,17.44,13.55,23.58,23.58,0,0,0,9.16-1.82,24.28,24.28,0,0,0,7.91-5.33l10.16,10.29a34.17,34.17,0,0,1-12.48,8.85,42.05,42.05,0,0,1-16.38,3.07,38.82,38.82,0,0,1-18.63-4.27,29.86,29.86,0,0,1-12.3-12,39.5,39.5,0,0,1,.06-36.08A30.78,30.78,0,0,1,462,172.93,37,37,0,0,1,480,168.6Q496.33,168.6,504.8,178Zm-9.72,19.45a15.26,15.26,0,0,0-4.27-10.66q-4-4-10.67-4a14.7,14.7,0,0,0-10.47,3.95,18.38,18.38,0,0,0-5.34,10.73Z"/><path class="cls-1" d="M525.06,148.9h19.83v70.52h37.65v17.32H525.06Z"/><path class="cls-1" d="M607.66,142.25a11.73,11.73,0,0,1,0,15.56,10.17,10.17,0,0,1-7.6,3,9.85,9.85,0,0,1-7.46-3.08,11.64,11.64,0,0,1,0-15.49,10,10,0,0,1,7.46-3A10.17,10.17,0,0,1,607.66,142.25Zm-17.13,27h19.32v67.51H590.53Z"/><path class="cls-1" d="M686.28,175.5q6.72,7,6.72,18.82v42.42H673.67V200q0-6.41-3.57-10.1t-9.73-3.7q-7.15.12-11.29,5t-4.14,12.36v33.26H625.61V169.23h19.33V181q7-12.28,23.34-12.55Q679.58,168.47,686.28,175.5Z"/><path class="cls-1" d="M752.16,236.74l-16.31-27.48-8.66,9.16v18.32H707.87V143.63h19.32v51.2l24.72-25.48h22l-24.72,26L775,236.74Z"/><path class="cls-1" d="M348.37,261.7h5.77v26.77H390.7V261.7h5.77v58.47H390.7V293.65H354.14v26.52h-5.77Z"/><path class="cls-1" d="M445.24,282.65q5.36,6.48,4.94,17.44H413.62a16.85,16.85,0,0,0,5.18,11.34,16,16,0,0,0,11.38,4.31,20,20,0,0,0,7.78-1.51,17.76,17.76,0,0,0,6.19-4.26l3.18,3.17a21.9,21.9,0,0,1-7.65,5.32,25.21,25.21,0,0,1-9.83,1.88,22.47,22.47,0,0,1-11.3-2.8,20.09,20.09,0,0,1-7.74-7.83,24.77,24.77,0,0,1,0-22.88,20,20,0,0,1,7.74-7.86,22.12,22.12,0,0,1,11.13-2.8Q439.88,276.17,445.24,282.65Zm-.08,13.09q-.42-6.86-4.56-10.91a14.82,14.82,0,0,0-10.84-4.06,15.67,15.67,0,0,0-11,4.1,16.37,16.37,0,0,0-5.1,10.87Z"/><path class="cls-1" d="M487.93,320.17l-.08-7.36a15.84,15.84,0,0,1-6.78,5.73,23.32,23.32,0,0,1-9.62,1.88,17.12,17.12,0,0,1-7.82-1.71,12.51,12.51,0,0,1-7.07-11.51,10.54,10.54,0,0,1,4.39-8.95Q465.35,295,473,295h14.72v-3.35q0-5.17-3.09-8t-9-2.84q-7,0-14.14,5.27L459,282.19a37.83,37.83,0,0,1,8.45-4.56,27,27,0,0,1,9.2-1.46q8,0,12.3,4t4.44,11l.08,29ZM482.37,313a13.37,13.37,0,0,0,5.48-7.66v-6H473.71q-5.77,0-8.79,1.92a6.43,6.43,0,0,0-3,5.78,7.76,7.76,0,0,0,2.89,6.31,11.61,11.61,0,0,0,7.65,2.39A17.47,17.47,0,0,0,482.37,313Z"/><path class="cls-1" d="M506.75,258.1h5.61v62.07h-5.61Z"/><path class="cls-1" d="M548.5,317.16a17.9,17.9,0,0,1-9.7,3.26,10.42,10.42,0,0,1-7.95-3.09q-2.93-3.1-2.93-9.29v-26.1h-6.27l-.09-4.35h6.36V266.3h5.61v11.29l14.22-.08v4.43H533.53v25.18q0,8.11,6,8.11a14.43,14.43,0,0,0,7.28-2.34Z"/><path class="cls-1" d="M592.43,280.73q4.47,4.56,4.48,12.5v26.94h-5.69v-25.6q0-6.18-3.43-9.7t-9.54-3.52q-7.28.09-11.42,4.82t-4.14,12.5v21.5h-5.6V258.1h5.6v28.61q4.44-10.38,17.4-10.54Q588,276.17,592.43,280.73Z"/><path class="cls-2" d="M181.25,192.83a64,64,0,0,1-30.16,13.51,63.79,63.79,0,0,1-62.32,50.25,64.6,64.6,0,0,1-10.09-.8,63.77,63.77,0,1,0,102.57-63Z"/><path class="cls-3" d="M151.1,179.32a63.45,63.45,0,0,1,30.15,13.51,63.77,63.77,0,1,0-102.1-64.92c-.16.64-.31,1.29-.45,1.94a63.78,63.78,0,0,1,72.4,49.47Z"/><path class="cls-4" d="M152.53,192.82a64.07,64.07,0,0,1-1.44,13.52,64,64,0,0,0,30.16-13.51,63.45,63.45,0,0,0-30.15-13.51A64.54,64.54,0,0,1,152.53,192.82Z"/><path class="cls-5" d="M100.77,192.83a63.76,63.76,0,0,1-22.07-63,63.77,63.77,0,0,0,0,125.94,64.54,64.54,0,0,1-1.43-13.5A63.66,63.66,0,0,1,100.77,192.83Z"/><path class="cls-6" d="M151.09,206.34a63.84,63.84,0,0,1-50.32-13.51,63.66,63.66,0,0,0-23.52,49.46,64.54,64.54,0,0,0,1.43,13.5,64.6,64.6,0,0,0,10.09.8A63.79,63.79,0,0,0,151.09,206.34Z"/><path class="cls-7" d="M100.77,192.83A63.48,63.48,0,0,1,141,178.53a64.5,64.5,0,0,1,10.09.79,63.78,63.78,0,0,0-72.4-49.47A63.76,63.76,0,0,0,100.77,192.83Z"/><path class="cls-8" d="M151.1,179.32a64.5,64.5,0,0,0-10.09-.79,63.48,63.48,0,0,0-40.24,14.3,63.84,63.84,0,0,0,50.32,13.51,64.31,64.31,0,0,0,0-27Z"/><path class="cls-1" d="M194.73,256.53a64.44,64.44,0,1,1,49.39-105.82l-17.35,14.55a41.8,41.8,0,1,0,0,53.67l17.35,14.55A64.29,64.29,0,0,1,194.73,256.53Z"/></svg>