<?xml version="1.0" encoding="UTF-8"?>
<svg width="17px" height="15px" viewBox="0 0 17 15" version="1.1" xmlns="http://www.w3.org/2000/svg" xmlns:xlink="http://www.w3.org/1999/xlink">
    <!-- Generator: Sketch 51.3 (57544) - http://www.bohemiancoding.com/sketch -->
    <title>Massage</title>
    <desc>Created with Sketch.</desc>
    <defs></defs>
    <g id="Notes-&amp;-Activities" stroke="none" stroke-width="1" fill="none" fill-rule="evenodd">
        <g id="Scheduled-Activity" transform="translate(-180.000000, -344.000000)" fill="#5CB85B">
            <path d="M194.875,344 L182.125,344 C180.951395,344 180,344.959381 180,346.142838 L180,353.999911 C180,355.183368 180.951395,356.142749 182.125,356.142749 L182.309167,356.142749 C182.504768,356.142749 182.663333,356.302646 182.663333,356.499889 L182.663333,358.507014 C182.66612,358.70705 182.786882,358.886155 182.970329,358.962326 C183.153776,359.038497 183.36459,358.997069 183.50625,358.857011 L185.787083,356.557031 C186.05154,356.288757 186.410716,356.137201 186.785833,356.135606 L194.875,356.135606 C196.048605,356.135606 197,355.176225 197,353.992768 L197,346.142838 C197,344.959381 196.048605,344 194.875,344 Z M189.208333,351.785645 L184.25,351.785645 C183.858798,351.785645 183.541667,351.465851 183.541667,351.071366 C183.541667,350.67688 183.858798,350.357086 184.25,350.357086 L189.208333,350.357086 C189.599535,350.357086 189.916667,350.67688 189.916667,351.071366 C189.916667,351.465851 189.599535,351.785645 189.208333,351.785645 Z M192.041667,348.928528 L184.25,348.928528 C183.858798,348.928528 183.541667,348.608734 183.541667,348.214248 C183.541667,347.819763 183.858798,347.499969 184.25,347.499969 L192.041667,347.499969 C192.432868,347.499969 192.75,347.819763 192.75,348.214248 C192.75,348.608734 192.432868,348.928528 192.041667,348.928528 Z" id="Massage"></path>
        </g>
    </g>
</svg>