<?xml version="1.0" encoding="UTF-8" standalone="no"?>
<svg width="449px" height="260px" viewBox="0 0 449 260" version="1.1" xmlns="http://www.w3.org/2000/svg"
     xmlns:sketch="http://www.bohemiancoding.com/sketch/ns">
    <!-- Generator: Sketch 3.2.2 (9983) - http://www.bohemiancoding.com/sketch -->
    <title>Logo</title>
    <desc>Created with Sketch.</desc>
    <defs></defs>
    <g id="HOME-PAGE-" stroke="none" stroke-width="1" fill="none" fill-rule="evenodd" sketch:type="MSPage">
        <g id="Desktop" sketch:type="MSArtboardGroup" transform="translate(-288.000000, -201.000000)">
            <g id="Group-+-Rectangle-67-+-Learn-about-chronic--+-Rectangle-69-+-Learn-about-chronic--+-Rectangle-71-+-Read-Case-Study-3-+-Rectangle-69-+-Case-Study:-Improvin-2-+-Rectangle-71-+-Read-Case-Study-+-$42" sketch:type="MSLayerGroup" transform="translate(0.000000, 1.000000)">
                <g id="Group-+-Rectangle-67-+-Learn-about-chronic--+-Rectangle-69-+-Learn-about-chronic--+-Rectangle-71-+-Read-Case-Study-3-+-Rectangle-69-+-Case-Study:-Improvin-2-+-Rectangle-71-+-Read-Case-Study" sketch:type="MSShapeGroup">
                    <g id="Logo-Section" transform="translate(130.000000, 38.000000)">
                        <g id="Logo" transform="translate(158.000000, 162.000000)">
                            <g id="Page-1">
                                <path d="M215.896348,0.291407767 C215.815449,0.291407767 215.726966,0.292674757 215.625843,0.296475728 L214.738483,0.340820388 L207.647191,0.689242718 L205.877528,0.777932039 L204.119242,0.992053398 L200.607725,1.4355 C195.90927,1.87134466 191.342275,3.0141699 186.779073,3.90613107 C184.529073,4.49401456 182.30941,5.16551942 180.091011,5.78507767 C178.9875,6.11449515 177.870084,6.38689806 176.786798,6.76066019 C175.711096,7.15722816 174.639185,7.55126214 173.569803,7.94529612 C172.501685,8.33806311 171.436096,8.7308301 170.374298,9.12106311 C169.316292,9.52269903 168.24059,9.86478641 167.231882,10.3652476 C165.186657,11.2952184 163.156601,12.2188544 161.144242,13.1348883 C153.241433,17.0840971 145.850562,21.4476117 139.486096,26.4572913 C136.181882,28.7999563 133.287219,31.4771068 130.420365,33.9743447 C128.949017,35.1830534 127.684972,36.5678738 126.38427,37.8614709 C125.094944,39.1652039 123.830899,40.4461311 122.590871,41.6991845 C120.291573,44.371267 118.063062,46.9128495 116.039326,49.4024854 C114.143258,51.9960146 112.301545,54.422301 110.651966,56.7573641 C109.126264,59.1760485 107.696629,61.4388932 106.375702,63.5319612 C105.095225,65.647835 104.108006,67.7054272 103.116994,69.5007524 C102.142416,71.3074806 101.267697,72.9152913 100.671067,74.3951359 C100.026404,75.8509078 99.479073,77.0900243 99.0341292,78.0934806 C98.1455056,80.1016602 97.6714888,81.173534 97.6714888,81.173534 C97.6714888,81.173534 98.1695225,80.1130631 99.1023876,78.1251553 C99.5688202,77.130568 100.143961,75.9041214 100.820225,74.4635534 C101.449719,72.9976456 102.361096,71.4101068 103.371067,69.6299854 C104.4,67.861267 105.426404,65.8391505 106.748596,63.7600194 C108.109972,61.7049612 109.582584,59.4826602 111.155056,57.1083204 C112.85014,54.8214029 114.734831,52.4483301 116.673876,49.9156165 C118.74059,47.4867961 121.009551,45.0123641 123.34677,42.415034 C124.60323,41.1987233 125.884972,39.9583398 127.191994,38.6938835 C128.509129,37.4408301 129.788343,36.0978204 131.273596,34.9334563 C134.168258,32.5236408 137.08441,29.9427816 140.402528,27.7002087 C146.796067,22.8919806 154.18441,18.7539903 162.037921,15.0442427 C164.036376,14.1877573 166.051264,13.3249369 168.080056,12.4545146 C169.079916,11.9844612 170.14677,11.6740485 171.194663,11.3028204 C172.245084,10.9417282 173.299298,10.5806359 174.356039,10.2182767 C175.412781,9.85591748 176.472051,9.49102427 177.535112,9.12613107 C178.604494,8.78404369 179.708006,8.54204854 180.796348,8.24430583 C182.98441,7.68429612 185.171208,7.07487379 187.385815,6.54907282 C191.874438,5.77747573 196.356742,4.75501456 200.959129,4.43573301 L204.394803,4.07844175 L206.115169,3.90613107 L207.844382,3.86051942 L214.766292,3.67300485 L215.630899,3.64893204 C215.658708,3.64639806 215.691573,3.64639806 215.729494,3.64639806 C215.919101,3.64639806 216.222472,3.67047087 216.441152,3.67807282 L218.193118,3.76296117 L221.693258,3.93400485 L225.190871,4.10504854 C226.341152,4.20387379 227.46236,4.37998544 228.597472,4.51175243 C230.858848,4.8158301 233.117697,5.04008738 235.361376,5.39991262 C237.598736,5.85222816 239.829775,6.30454369 242.050702,6.75432524 C244.289326,7.12428641 246.431882,7.8692767 248.600983,8.44195631 C250.754916,9.0691165 252.931601,9.58098058 254.995787,10.4108592 C257.080197,11.1672524 259.151966,11.9198447 261.209831,12.6661019 C263.225983,13.5149854 265.194101,14.4398883 267.163483,15.3103107 C268.141854,15.7588252 269.131601,16.1705971 270.088483,16.6431845 C271.027669,17.1499806 271.963062,17.6542427 272.894663,18.1572379 C274.743961,19.179699 276.623596,20.1096699 278.395787,21.1790097 C281.866854,23.4405874 285.387219,25.4589029 288.477809,27.9193981 C290.047753,29.1116359 291.651826,30.2126505 293.129494,31.4289612 C294.580618,32.6756796 296.010253,33.9046602 297.415871,35.1121019 C298.117416,35.7177233 298.811376,36.3170097 299.500281,36.9124951 C300.147472,37.5535922 300.788343,38.1896214 301.422893,38.8193155 C302.691994,40.0761699 303.937079,41.3102184 305.158146,42.5189272 C307.508006,45.021233 309.61264,47.5577476 311.689466,49.8940777 C313.576685,52.3875146 315.366573,54.7529854 317.047753,56.9765534 C318.565871,59.3116165 319.987921,61.4984417 321.301264,63.5192913 C321.991433,64.5088107 322.505899,65.5490097 323.048174,66.5106553 C323.581601,67.4773689 324.091011,68.3984709 324.573876,69.2739612 C326.456039,72.4642427 327.574719,75.2212136 328.474719,77.1369029 L332.983567,78.5014515 L334.305758,74.117665 C333.33118,72.1335583 332.101264,69.3563155 330.129354,66.164767 C329.602247,65.256335 329.046067,64.2997573 328.462079,63.297568 C327.869242,62.3004466 327.302949,61.2247718 326.557163,60.1997767 C325.132584,58.1105097 323.590449,55.851466 321.943399,53.4378495 C320.130758,51.149665 318.201826,48.7145097 316.167978,46.1463204 C313.944522,43.7441068 311.683146,41.1467767 309.170225,38.5887233 C307.868258,37.3546748 306.539747,36.0952864 305.185955,34.8118252 C304.509691,34.1707282 303.825843,33.5232961 303.136938,32.8707961 C302.405056,32.2651748 301.666854,31.6544854 300.922331,31.0387282 C299.429494,29.8135485 297.911376,28.5680971 296.369242,27.3023738 C294.80309,26.0721262 293.108006,24.9571748 291.448315,23.754801 C288.174438,21.274034 284.469522,19.2455825 280.81264,16.9840049 C278.948174,15.915932 276.976264,14.9910291 275.033427,13.9736359 C274.05632,13.4744417 273.075421,12.9739806 272.089466,12.4709854 C271.087079,12.003466 270.050562,11.5967621 269.026685,11.1545825 C266.966292,10.2968301 264.907163,9.38586408 262.801264,8.55725243 C260.65618,7.83126699 258.494663,7.10021359 256.320506,6.36409223 C254.169101,5.55828641 251.906461,5.07429612 249.667837,4.4762767 C247.414045,3.93400485 245.189326,3.22195631 242.871067,2.88620388 C240.570506,2.47443204 238.26236,2.06012621 235.945365,1.64582039 C233.608146,1.32273786 231.231742,1.13649029 228.870506,0.878024272 C227.689888,0.767796117 226.499157,0.614490291 225.32486,0.541004854 L221.824719,0.448514563 L218.320787,0.354757282 L216.567556,0.309145631 C216.323596,0.30661165 216.150421,0.291407767 215.896348,0.291407767" id="Fill-1" fill="#9AD5F0"></path>
                                <path d="M336.673315,66.2610583 L332.983567,78.5014515 L320.598455,74.7524272 L319.316713,79.0057136 L335.946489,84.039466 L340.915449,67.5457864 L336.673315,66.2610583" id="Fill-2" fill="#9AD5F0"></path>
                                <path d="M123.329073,217.005029 L122.311517,234.204422 L126.735674,234.467956 L127.195787,226.702573 C126.596629,226.157767 126.078371,225.676311 125.632163,225.275942 C124.494522,224.238277 123.887781,223.685869 123.887781,223.685869 L128.550843,218.934655 C128.550843,218.934655 129.109551,219.478194 130.157444,220.495587 C130.580899,220.902291 131.076404,221.393883 131.651545,221.951359 L140.407584,222.472092 L140.670506,218.036359 L123.329073,217.005029" id="Fill-3" fill="#9AD5F0"></path>
                                <path d="M309.624017,216.926476 C309.624017,216.926476 309.057725,217.491553 307.995927,218.552024 C306.913904,219.590956 305.427388,221.224107 303.31264,223.059976 C302.266011,223.987413 301.143539,225.052951 299.856742,226.141296 C298.550983,227.205568 297.140309,228.357262 295.631039,229.58751 C294.090169,230.775947 292.401404,231.975786 290.650702,233.274451 C288.870927,234.53384 286.92809,235.753951 284.942275,237.083024 C282.889466,238.306937 280.760815,239.599267 278.510815,240.847252 C276.211517,242.006549 273.913483,243.355893 271.399298,244.436636 C270.158006,245.006782 268.900281,245.584529 267.626124,246.168612 C266.325421,246.689345 265.008287,247.215146 263.677247,247.747282 C263.01236,248.012083 262.342416,248.27815 261.671208,248.545485 C260.992416,248.798883 260.298455,249.018073 259.607022,249.256267 C258.224157,249.72632 256.827388,250.200175 255.419242,250.67783 C253.988343,251.083267 252.546067,251.492505 251.09368,251.904277 C250.366854,252.108262 249.638764,252.312248 248.906882,252.516233 C248.166152,252.684743 247.422893,252.851985 246.677107,253.020495 C245.18427,253.348646 243.691433,253.71734 242.177107,254.018883 C240.655197,254.278617 239.125702,254.540883 237.589888,254.804417 C231.573034,255.709049 225.412079,256.321005 219.237219,256.321005 C219.094382,256.321005 218.950281,256.321005 218.80618,256.319738 L216.439888,256.345078 L215.848315,256.351413 L215.293399,256.328607 L214.096348,256.279194 C212.49986,256.213311 210.905899,256.14616 209.314466,256.080277 C206.20618,255.769864 203.120646,255.581083 200.049017,255.071752 C196.971067,254.700524 193.963904,254.041689 190.984551,253.475345 C188.04059,252.739223 185.104213,252.127267 182.299298,251.218835 C176.63132,249.611024 171.327388,247.511621 166.403933,245.336199 C165.184129,244.764786 163.980758,244.202243 162.795084,243.648568 C161.605618,243.105029 160.489466,242.452529 159.363202,241.877316 C157.100562,240.738291 155.006039,239.468767 152.988624,238.271461 C150.948455,237.109631 149.125702,235.779291 147.32191,234.633932 C145.550983,233.437893 143.943118,232.19751 142.394663,231.092694 C139.386236,228.756364 136.802528,226.672165 134.788904,224.823626 C133.54382,223.760621 132.508567,222.782505 131.651545,221.951359 C131.076404,221.393883 130.580899,220.902291 130.157444,220.495587 C129.109551,219.478194 128.550843,218.934655 128.550843,218.934655 L123.887781,223.685869 C123.887781,223.685869 124.494522,224.238277 125.632163,225.275942 C126.078371,225.676311 126.596629,226.157767 127.195787,226.702573 C128.136236,227.557791 129.277669,228.56885 130.646629,229.666063 C132.825843,231.534874 135.606742,233.638078 138.838904,235.980743 C140.498596,237.089359 142.224017,238.328476 144.117556,239.520714 C146.043961,240.659738 147.993118,241.982476 150.163483,243.129102 C152.31236,244.312471 154.538343,245.561723 156.936236,246.675408 C158.132022,247.239218 159.315169,247.876515 160.572893,248.403583 C161.825562,248.940786 163.097191,249.485592 164.386517,250.038 C169.58427,252.137403 175.161236,254.132913 181.088343,255.610223 C184.023455,256.452772 187.084972,256.99251 190.149017,257.651345 C193.249719,258.139136 196.37191,258.713083 199.559831,258.994354 C202.719944,259.413728 205.98118,259.515087 209.222191,259.724141 C210.814888,259.738078 212.411376,259.753282 214.009129,259.767218 L215.207444,259.777354 L215.849579,259.781155 L216.45632,259.754549 L218.884551,259.651922 C225.361517,259.469476 231.800562,258.62566 238.052528,257.475233 C239.609831,257.154684 241.162079,256.83667 242.706742,256.519922 C244.241292,256.163898 245.751826,255.738189 247.261096,255.354291 C248.014466,255.157908 248.765309,254.962791 249.513624,254.767675 C250.251826,254.534549 250.9875,254.302689 251.719382,254.072097 C253.183146,253.604578 254.635534,253.140859 256.076545,252.680942 C257.491011,252.148806 258.894101,251.621738 260.284551,251.099738 C260.977247,250.83367 261.673736,250.587874 262.353792,250.310403 C263.027528,250.016461 263.697472,249.723786 264.363624,249.433646 C265.694663,248.85083 267.011798,248.273083 268.3125,247.702937 C269.582865,247.069442 270.838062,246.443549 272.075562,245.825257 C274.580899,244.64949 276.863764,243.208922 279.144101,241.964738 C281.37514,240.630597 283.481039,239.25718 285.508567,237.955981 C287.467837,236.550888 289.381601,235.259825 291.131039,233.934553 C292.851404,232.570005 294.507303,231.30935 296.015309,230.066432 C297.489185,228.782971 298.869522,227.580597 300.144944,226.469447 C301.40014,225.336757 302.493539,224.228141 303.511096,223.263961 C305.570225,221.357141 307.001124,219.679646 308.049017,218.605238 C309.076685,217.510558 309.624017,216.926476 309.624017,216.926476" id="Fill-4" fill="#9AD5F0"></path>
                                <path d="M0.573876404,107.509194 C0.573876404,82.7281311 19.3866573,65.4425825 42.665309,65.4425825 C57.1373596,65.4425825 68.231882,70.8805049 75.2271067,81.3990583 L68.5933989,86.2338932 C63.2882022,78.3772864 54.4841292,73.2991893 42.665309,73.2991893 C23.4872191,73.2991893 9.61811798,87.9253252 9.61811798,107.509194 C9.61811798,127.091796 23.4872191,141.720466 42.665309,141.720466 C54.6042135,141.720466 63.7710674,136.523272 69.6792135,127.939413 L76.4330056,132.653883 C69.1963483,143.292801 57.3775281,149.57834 42.665309,149.57834 C19.3866573,149.57834 0.573876404,132.290257 0.573876404,107.509194" id="Fill-5" fill="#000000"></path>
                                <path d="M84.1057584,98.5642427 L92.5470506,98.5642427 L92.5470506,148.610359 L84.1057584,148.610359 L84.1057584,98.5642427 Z" id="Fill-6" fill="#000000"></path>
                                <path d="M108.044242,98.5642427 L116.485534,98.5642427 L116.242837,108.355544 C119.378933,100.739665 124.926826,97.5962621 130.8375,97.5962621 C134.576545,97.5962621 137.228511,98.4438786 139.521489,100.014947 L136.264045,107.38883 C134.696629,106.300485 132.526264,105.454136 129.390169,105.454136 C122.27486,105.454136 116.485534,110.530966 116.485534,122.258228 L116.485534,148.610359 L108.044242,148.610359 L108.044242,98.5642427" id="Fill-7" fill="#000000"></path>
                                <path d="M140.673034,123.586034 C140.673034,108.959898 151.890169,97.4758981 166.603652,97.4758981 C175.527809,97.4758981 181.678652,100.860029 186.262079,106.42085 L180.23132,111.378583 C177.216573,107.38883 172.875843,104.970146 166.603652,104.970146 C155.99073,104.970146 149.357022,112.94965 149.357022,123.586034 C149.357022,134.224951 155.99073,142.204456 166.603652,142.204456 C173.477528,142.204456 177.818258,139.423413 180.956882,135.675655 L186.744944,140.633388 C182.041433,146.314573 175.89059,149.57834 166.603652,149.57834 C151.890169,149.57834 140.673034,138.214704 140.673034,123.586034" id="Fill-8" fill="#000000"></path>
                                <path d="M195.072472,61.332466 L203.513764,61.332466 L203.513764,148.610359 L195.072472,148.610359 L195.072472,61.332466 Z" id="Fill-9" fill="#000000"></path>
                                <path d="M240.178652,142.445184 C247.655478,142.445184 252.720506,139.423413 255.976685,135.796019 L261.164326,140.874117 C256.582163,146.071311 249.948455,149.57834 240.178652,149.57834 C223.776404,149.57834 213.163483,138.214704 213.163483,123.586034 C213.163483,108.959898 224.379354,97.4758981 238.971489,97.4758981 C255.013483,97.4758981 264.660674,109.807515 264.057725,126.368345 L221.606039,126.368345 C222.691854,135.916383 229.202949,142.445184 240.178652,142.445184 L240.178652,142.445184 Z M255.616433,119.959908 C254.892135,111.378583 249.46559,104.609053 238.971489,104.609053 C229.445646,104.609053 223.052107,110.774228 221.726124,119.959908 L255.616433,119.959908 L255.616433,119.959908 Z" id="Fill-10" fill="#000000"></path>
                                <path d="M275.158567,66.4092961 L283.842556,66.4092961 L283.842556,140.874117 L322.555197,140.874117 L322.555197,148.610359 L275.158567,148.610359 L275.158567,66.4092961" id="Fill-11" fill="#000000"></path>
                                <path d="M333.391854,98.5642427 L341.833146,98.5642427 L341.833146,148.610359 L333.391854,148.610359 L333.391854,98.5642427 Z" id="Fill-12" fill="#000000"></path>
                                <path d="M353.941433,98.5642427 L362.383989,98.5642427 L362.142556,108.839534 C365.4,101.707646 370.625562,97.4758981 378.706601,97.4758981 C389.802388,97.4758981 397.401826,105.093044 397.401826,118.148112 L397.401826,148.610359 L388.958006,148.610359 L388.958006,119.114825 C388.958006,110.290238 384.857444,105.213408 376.536236,105.213408 C367.249298,105.213408 362.383989,111.13532 362.383989,121.049519 L362.383989,148.610359 L353.941433,148.610359 L353.941433,98.5642427" id="Fill-13" fill="#000000"></path>
                                <path d="M414.559972,148.610359 L405.836798,148.610359 L405.836798,61.332466 L414.559972,61.332466 L414.559972,117.300495 C414.559972,119.839544 414.328652,122.378592 413.983567,124.43365 L436.692135,98.5642427 L446.029635,98.5642427 L427.699719,119.598816 L448.911657,148.610359 L439.342837,148.610359 L422.051966,125.159636 L414.559972,133.378602 L414.559972,148.610359" id="Fill-14" fill="#000000"></path>
                                <path d="M114.291152,167.831869 L110.313202,167.831869 L110.313202,182.566966 L90.2742978,182.566966 L90.2742978,167.831869 L86.2950843,167.831869 L86.2950843,201.040951 L90.2742978,201.040951 L90.2742978,187.223155 L91.3917135,187.223155 L90.2742978,187.223155 L90.2742978,186.101869 L110.313202,186.101869 L110.311938,201.040951 L114.291152,201.040951 L114.291152,167.831869" id="Fill-15" fill="#539DCD"></path>
                                <path d="M90.2742978,182.566966 L110.313202,182.566966 L110.313202,167.831869 L114.291152,167.831869 L114.291152,201.040951 L110.311938,201.040951 L110.313202,186.101869 L90.2742978,186.101869 L90.2742978,187.223155 L91.3917135,187.223155 L90.2742978,187.223155 L90.2742978,201.040951 L86.2950843,201.040951 L86.2950843,167.831869 L90.2742978,167.831869 L90.2742978,182.566966 M116.527247,165.590563 L108.077107,165.590563 L108.077107,180.326927 L92.5091292,180.326927 L92.5091292,165.590563 L84.0589888,165.590563 L84.0589888,203.282257 L92.5091292,203.282257 L92.5091292,188.343175 L108.077107,188.343175 L108.077107,203.282257 L116.527247,203.282257 L116.527247,165.590563" id="Fill-16" fill="#539DCD"></path>
                                <path d="M351.771067,167.831869 L347.793118,167.831869 L347.793118,182.566966 L327.754213,182.566966 L327.754213,167.831869 L323.776264,167.831869 L323.776264,201.040951 L327.754213,201.040951 L327.754213,187.223155 L328.872893,187.223155 L327.754213,187.223155 L327.754213,186.101869 L347.793118,186.101869 L347.793118,201.040951 L351.771067,201.040951 L351.771067,167.831869" id="Fill-17" fill="#539DCD"></path>
                                <path d="M327.754213,182.566966 L347.793118,182.566966 L347.793118,167.831869 L351.771067,167.831869 L351.771067,201.040951 L347.793118,201.040951 L347.793118,186.101869 L327.754213,186.101869 L327.754213,187.223155 L328.872893,187.223155 L327.754213,187.223155 L327.754213,201.040951 L323.776264,201.040951 L323.776264,167.831869 L327.754213,167.831869 L327.754213,182.566966 M354.007163,165.590563 L345.557022,165.590563 L345.557022,180.326927 L329.990309,180.326927 L329.990309,165.590563 L321.540169,165.590563 L321.540169,203.282257 L329.990309,203.282257 L329.990309,188.343175 L345.557022,188.343175 L345.557022,203.282257 L354.007163,203.282257 L354.007163,165.590563" id="Fill-18" fill="#539DCD"></path>
                                <path d="M161.972191,167.831869 L137.98441,167.831869 L137.98441,201.040951 L162.223736,201.040951 L162.223736,197.712568 L141.96236,197.712568 L141.96236,185.948563 L159.69691,185.948563 L159.69691,182.62018 L141.96236,182.62018 L141.96236,171.160252 L161.972191,171.160252 L161.972191,167.831869" id="Fill-19" fill="#539DCD"></path>
                                <path d="M163.090871,172.280272 L163.090871,171.160252 L163.090871,172.280272 L164.208287,172.280272 L163.090871,172.280272 M137.98441,201.040951 L137.98441,167.831869 L161.972191,167.831869 L161.972191,171.160252 L141.96236,171.160252 L141.96236,182.62018 L159.69691,182.62018 L159.69691,185.948563 L141.96236,185.948563 L141.96236,197.712568 L162.223736,197.712568 L162.223736,201.040951 L137.98441,201.040951 M164.208287,165.590563 L135.748315,165.590563 L135.748315,203.282257 L164.459831,203.282257 L164.459831,195.471262 L144.198455,195.471262 L144.198455,188.189869 L161.933006,188.189869 L161.933006,180.378874 L144.198455,180.378874 L144.198455,173.401558 L164.208287,173.401558 L164.208287,165.590563" id="Fill-20" fill="#539DCD"></path>
                                <path d="M198.736938,173.461107 L199.759551,171.067762 L207.578933,189.203461 L192.004635,189.203461 L198.736938,173.461107 M202.015871,167.577204 L197.718118,167.577204 L183.131039,201.040951 L187.050843,201.040951 L190.688764,192.481165 L208.896067,192.481165 L212.483427,201.040951 L216.600421,201.040951 L202.015871,167.577204" id="Fill-21" fill="#539DCD"></path>
                                <path d="M195.396067,186.962155 L199.768399,176.737544 L204.177388,186.962155 L195.396067,186.962155 M198.738202,174.346733 L199.764607,173.903286 L198.738202,174.346733 M199.759551,171.067762 L192.004635,189.203461 L207.578933,189.203461 L199.759551,171.067762 M218.308146,202.162238 L218.308146,201.040951 L218.308146,202.162238 L219.333287,201.713723 L218.308146,202.162238 M183.131039,201.040951 L197.718118,167.577204 L202.015871,167.577204 L216.600421,201.040951 L212.483427,201.040951 L208.896067,192.481165 L190.688764,192.481165 L187.050843,201.040951 L183.131039,201.040951 M203.478371,165.337165 L196.255618,165.337165 L179.714326,203.282257 L188.528511,203.282257 L192.166433,194.722471 L207.409551,194.722471 L210.998174,203.282257 L220.017135,203.282257 L203.478371,165.337165" id="Fill-22" fill="#539DCD"></path>
                                <path d="M243,167.831869 L239.022051,167.831869 L239.022051,201.040951 L261.595365,201.040951 L261.595365,197.609942 L243,197.609942 L243,167.831869" id="Fill-23" fill="#539DCD"></path>
                                <path d="M239.022051,167.831869 L243,167.831869 L243,197.609942 L261.595365,197.609942 L261.595365,201.040951 L239.022051,201.040951 L239.022051,167.831869 M245.236096,165.590563 L236.785955,165.590563 L236.785955,166.710583 L237.904635,166.710583 L236.785955,166.710583 L236.785955,203.282257 L263.830197,203.282257 L263.830197,195.368636 L245.236096,195.368636 L245.236096,165.590563" id="Fill-24" fill="#539DCD"></path>
                                <path d="M303.291152,167.831869 L276.828371,167.831869 L276.828371,171.364238 L288.045506,171.364238 L288.045506,201.040951 L292.074017,201.040951 L292.074017,171.364238 L303.291152,171.364238 L303.291152,167.831869" id="Fill-25" fill="#539DCD"></path>
                                <path d="M293.192697,202.162238 L293.192697,201.040951 L293.192697,202.162238 L294.310112,202.162238 L293.192697,202.162238 M276.828371,171.364238 L276.828371,167.831869 L303.291152,167.831869 L303.291152,171.364238 L292.074017,171.364238 L292.074017,201.040951 L288.045506,201.040951 L288.045506,171.364238 L276.828371,171.364238 M305.525983,165.590563 L274.593539,165.590563 L274.593539,173.605544 L285.80941,173.605544 L285.80941,203.282257 L294.310112,203.282257 L294.310112,173.605544 L305.525983,173.605544 L305.525983,165.590563" id="Fill-26" fill="#539DCD"></path>
                            </g>
                        </g>
                    </g>
                </g>
            </g>
        </g>
    </g>
</svg>