<svg xmlns="http://www.w3.org/2000/svg" width="20" height="19" viewBox="0 0 20 19">
    <g fill="none" fill-rule="evenodd">
        <path fill="#FFF" fill-rule="nonzero" d="M16.637.836a3.287 3.287 0 0 0-3.28 1.66 3.314 3.314 0 0 0-2.77-2.439c-1.806-.234-3.5 1.406-3.75 3.236-.085.77.003 1.55.257 2.28 3.531-2.957 8.475-.468 9.156 3.927 1.531-1.115 2.962-2.679 3.2-4.573.238-1.893-1.006-3.857-2.813-4.091zM9.794 6.27A3.693 3.693 0 0 0 7.05 9.31a3.637 3.637 0 0 0-3.825-1.406c-1.975.488-3.069 2.863-2.6 4.858 1.069 4.338 7.831 6.422 8.75 6.187.919-.234 5.981-5.237 4.925-9.595-.469-1.988-2.544-3.572-4.506-3.084z"/>
        <path fill="#9DD4EE" d="M16.637.836a3.287 3.287 0 0 0-3.28 1.66 3.314 3.314 0 0 0-2.77-2.439c-1.806-.234-3.5 1.406-3.75 3.236-.085.77.003 1.55.257 2.28 3.531-2.957 8.475-.468 9.156 3.927 1.531-1.115 2.962-2.679 3.2-4.573.238-1.893-1.006-3.857-2.813-4.091z"/>
    </g>
</svg>
