<svg xmlns="http://www.w3.org/2000/svg" width="20" height="20" viewBox="0 0 20 20">
    <path fill="#FFF" fill-rule="nonzero" d="M10 0C4.477 0 0 4.477 0 10s4.477 10 10 10 10-4.477 10-10S15.523 0 10 0zM4.973 8.313a1.667 1.667 0 1 1 3.333.04 1.667 1.667 0 0 1-3.333-.04zm9.3 5.02A4.733 4.733 0 0 1 10 16.36a4.733 4.733 0 0 1-4.293-3.027.613.613 0 0 1 .953-.713 5.193 5.193 0 0 0 3.333 1.147 5.193 5.193 0 0 0 3.334-1.147c.11-.091.25-.14.393-.14a.613.613 0 0 1 .553.853zM13.333 10a1.667 1.667 0 1 1 0-3.333 1.667 1.667 0 0 1 0 3.333z"/>
</svg>
