<svg xmlns="http://www.w3.org/2000/svg" width="20" height="25" viewBox="0 0 20 25">
    <g fill="none" fill-rule="evenodd">
        <path fill="#FFF" fill-rule="nonzero" d="M16.728 9.129l-1.072 2.089c-.312.613-.712.564-.88-.105l-2.4-9.444c-.4-1.613-2.728-.806-2.4.807l1.4 6.451c.352 1.613-.4 1.888-.928.315L8.16 2.419A1.237 1.237 0 0 0 6.608 1.7a1.252 1.252 0 0 0-.792 1.526l2.264 6.847c.528 1.612-.248 1.814-.928.33l-2.584-5.5c-.696-1.5-3.032-.67-2.344.807l3.248 6.653c.712 1.54-.064 1.685-1.056.443L2.184 9.92a1.697 1.697 0 0 0-1.656-.66c-.488.168-.608.806-.272 1.394C3.312 16.056 4.8 18.871 4.8 18.871c2.944 4.677 9.416 1.04 10.624-1.347l3.744-8.21c.416-1.032-1.696-1.604-2.44-.185zm.552 12.758a1.228 1.228 0 0 0-1.536-.605L9.8 23.532c-.603.207-.95.844-.8 1.468h9.84l-1.56-3.113z"/>
        <path fill="#9DD4EE" d="M17.28 21.887a1.228 1.228 0 0 0-1.536-.605L9.8 23.532c-.603.207-.95.844-.8 1.468h9.84l-1.56-3.113z"/>
    </g>
</svg>
