<svg xmlns="http://www.w3.org/2000/svg" width="20" height="20" viewBox="0 0 20 20">
    <path fill="#FFF" fill-rule="nonzero" d="M19.194 8.588l-.813-.813c.04-.03.077-.06.113-.094l.231-.231a1.4 1.4 0 0 0 0-1.975l-4.2-4.225a1.4 1.4 0 0 0-1.975 0l-.238.238a1.363 1.363 0 0 0-.093.112l-.813-.813a1.375 1.375 0 0 0-1.937 0l-.719.732a1.375 1.375 0 0 0 0 1.937l7.794 7.794a1.375 1.375 0 0 0 1.937 0l.713-.713a1.375 1.375 0 0 0 0-1.95zM3.456 8.75a1.375 1.375 0 0 0-1.937 0l-.713.719a1.375 1.375 0 0 0 0 1.937l.813.813c-.042.029-.081.06-.119.094l-.25.237a1.4 1.4 0 0 0 0 1.975l4.225 4.225a1.4 1.4 0 0 0 1.975 0l.231-.231c.034-.038.065-.078.094-.119l.813.813a1.375 1.375 0 0 0 1.937 0l.725-.732a1.375 1.375 0 0 0 0-1.937L3.456 8.75zm3.675 1.875l2.207 2.213 3.537-3.532-2.213-2.181-3.53 3.5z" opacity=".436"/>
</svg>
