<svg xmlns="http://www.w3.org/2000/svg" width="24" height="24" viewBox="0 0 24 24">
    <g fill="none" fill-rule="evenodd">
        <path d="M0 0h24v24H0z"/>
        <path fill="#FFF" fill-rule="nonzero" d="M16.316 16.148a.75.75 0 0 1-.733-1.309A3.248 3.248 0 0 0 17.25 12a3.248 3.248 0 0 0-1.645-2.827.75.75 0 0 1 .742-1.304A4.748 4.748 0 0 1 18.75 12c0 1.74-.944 3.315-2.434 4.148z"/>
        <path fill="#FFF" d="M7 16l-3.392-.678A2 2 0 0 1 2 13.36v-2.72a2 2 0 0 1 1.608-1.962L7 8l3.293-3.293A1 1 0 0 1 12 5.414v13.172a1 1 0 0 1-1.707.707L7 16z"/>
    </g>
</svg>
