<svg xmlns="http://www.w3.org/2000/svg" width="20" height="20" viewBox="0 0 20 20">
    <g fill="#FFF" fill-rule="evenodd">
        <path fill-opacity=".44" fill-rule="nonzero" d="M19.18 5.627a2.807 2.807 0 0 0-1.113-.767 2.933 2.933 0 0 1-1.487-1.253 7.333 7.333 0 0 0-12.62 0A2.94 2.94 0 0 1 2.48 4.86a2.82 2.82 0 0 0-1.813 3l1.286 9.68a2.827 2.827 0 0 0 2.8 2.46h11.04a2.827 2.827 0 0 0 2.807-2.46l1.26-9.68a2.827 2.827 0 0 0-.68-2.233zm-8.907 6.706a5 5 0 1 1 0-10 5 5 0 0 1 0 10zm.94-5.94l-2.706-1.96a.813.813 0 0 0-1.134 1.134l1.96 2.706a1.352 1.352 0 1 0 1.887-1.887l-.007.007z"/>
        <path d="M11.213 6.393l-2.706-1.96a.813.813 0 0 0-1.134 1.134l1.96 2.706a1.352 1.352 0 1 0 1.887-1.887l-.007.007z"/>
    </g>
</svg>
